<svg width="41" height="41" viewBox="0 0 41 41" fill="none" xmlns="http://www.w3.org/2000/svg">
<mask id="mask0_505_5391" style="mask-type:alpha" maskUnits="userSpaceOnUse" x="0" y="0" width="41" height="41">
<rect width="41" height="41" rx="20.5" fill="#D9D9D9"/>
</mask>
<g mask="url(#mask0_505_5391)">
<path d="M5.1263 17.0841C4.18282 17.0841 3.40853 16.3174 3.49639 15.3781C3.70149 13.1853 4.30885 11.1416 5.31849 9.24714C6.31323 7.3806 7.5756 5.76416 9.10562 4.3978C9.80376 3.77433 10.8711 3.94335 11.4251 4.69777C11.9797 5.45292 11.8077 6.50719 11.125 7.14887C10.014 8.1931 9.08931 9.41214 8.35078 10.806C7.59748 12.2277 7.12489 13.7522 6.93301 15.3795C6.82252 16.3165 6.06979 17.0841 5.1263 17.0841ZM35.8763 17.0841C34.9328 17.0841 34.1801 16.3165 34.0696 15.3795C33.8777 13.7522 33.4051 12.2277 32.6518 10.806C31.9133 9.41214 30.9886 8.1931 29.8776 7.14887C29.1949 6.50719 29.0229 5.45292 29.5775 4.69777C30.1315 3.94335 31.1988 3.77433 31.897 4.3978C33.427 5.76416 34.6894 7.3806 35.6841 9.24714C36.6938 11.1416 37.3011 13.1853 37.5062 15.3781C37.5941 16.3174 36.8198 17.0841 35.8763 17.0841ZM8.54297 32.4591C7.59948 32.4591 6.83464 31.6943 6.83464 30.7508C6.83464 29.8073 7.59948 29.0424 8.54297 29.0424C9.48645 29.0424 10.2513 28.2776 10.2513 27.3341V17.0841C10.2513 14.7209 10.9631 12.6211 12.3867 10.7846C13.5644 9.26548 15.0342 8.17983 16.7964 7.52768C17.4555 7.28376 17.9388 6.68275 17.9388 5.97995C17.9388 5.26814 18.1879 4.66311 18.6862 4.16484C19.1845 3.66658 19.7895 3.41745 20.5013 3.41745C21.2131 3.41745 21.8181 3.66658 22.3164 4.16484C22.8147 4.66311 23.0638 5.26814 23.0638 5.97995C23.0638 6.68275 23.5471 7.28376 24.2062 7.52768C25.9684 8.17983 27.4382 9.26548 28.6159 10.7846C30.0395 12.6211 30.7513 14.7209 30.7513 17.0841V27.3341C30.7513 28.2776 31.5161 29.0424 32.4596 29.0424C33.4031 29.0424 34.168 29.8073 34.168 30.7508C34.168 31.6943 33.4031 32.4591 32.4596 32.4591H8.54297ZM20.5013 37.5841C19.5617 37.5841 18.7574 37.2496 18.0883 36.5805C17.0392 35.5314 18.2873 34.1674 19.7709 34.1674H21.2317C22.7153 34.1674 23.9634 35.5314 22.9143 36.5805C22.2452 37.2496 21.4409 37.5841 20.5013 37.5841ZM13.668 22.2091C13.668 25.9831 16.7274 29.0424 20.5013 29.0424C24.2752 29.0424 27.3346 25.9831 27.3346 22.2091V17.0841C27.3346 15.205 26.6655 13.5963 25.3273 12.2581C23.9891 10.9199 22.3805 10.2508 20.5013 10.2508C18.6221 10.2508 17.0135 10.9199 15.6753 12.2581C14.3371 13.5963 13.668 15.205 13.668 17.0841V22.2091Z" fill="white"/>
</g>
</svg>
