<svg width="77" height="77" viewBox="0 0 77 77" fill="none" xmlns="http://www.w3.org/2000/svg">
<circle cx="38.5" cy="38.5" r="36.58" fill="#3C77CF" stroke="#3C77CF" stroke-width="3.84"/>
<path d="M36.3558 26.7375C37.3043 29.437 38.1312 31.8326 38.8365 33.9241C39.5661 36.0156 40.2835 38.0098 40.9888 39.9068C41.6698 41.8524 42.3629 43.8345 43.0682 45.853C43.7734 47.8716 44.5882 50.1698 45.5123 52.7478H41.8643C41.0131 52.7478 40.3322 52.7234 39.8214 52.6748C39.3107 52.6262 38.8973 52.4924 38.5811 52.2735C38.2163 52.1033 37.9123 51.8236 37.6691 51.4345C37.4502 51.021 37.207 50.4374 36.9395 49.6834L35.5898 45.5977H26.1779L24.6458 50.486C24.4512 51.1183 24.2323 51.5926 23.9891 51.9087C23.7702 52.2006 23.5149 52.4073 23.223 52.5289C22.9555 52.6748 22.615 52.7478 22.2016 52.7478C21.7882 52.7478 21.2896 52.7478 20.7059 52.7478H16.5107C18.1645 48.2486 19.7088 43.8345 21.1437 39.5055C22.6029 35.1522 24.1229 30.8719 25.7037 26.6646C25.8982 26.2025 26.0563 25.8012 26.1779 25.4607C26.2995 25.0959 26.4576 24.7919 26.6522 24.5487C26.871 24.3542 27.1629 24.1839 27.5277 24.038C27.9168 23.8678 28.4275 23.7462 29.0598 23.6732H32.5254C33.2064 23.6732 33.7414 23.7218 34.1306 23.8191C34.5197 23.8921 34.848 24.038 35.1155 24.2569C35.383 24.5001 35.6019 24.8284 35.7722 25.2418C35.9424 25.631 36.137 26.1295 36.3558 26.7375ZM34.1306 40.4175L30.9933 31.1881L27.8195 40.4175H34.1306ZM48.549 23.6002H56.6111V52.7478H48.549V23.6002Z" fill="white"/>
</svg>
