<svg width="36" height="36" viewBox="0 0 36 36" fill="none" xmlns="http://www.w3.org/2000/svg">
<path d="M9.75372 10.4628C10.1774 6.22625 13.7423 3 18 3C22.2577 3 25.8226 6.22624 26.2463 10.4628L26.6762 14.762C26.7023 15.0234 26.7154 15.1542 26.7311 15.2828C26.9474 17.0576 27.5575 18.7616 28.5169 20.2703C28.5865 20.3797 28.6593 20.489 28.8051 20.7076L30.0968 22.6452C31.2763 24.4144 31.866 25.299 31.6072 26.0119C31.5583 26.1467 31.4902 26.2737 31.4052 26.3892C30.9556 27 29.8925 27 27.7662 27H8.23384C6.10752 27 5.04436 27 4.59477 26.3892C4.50976 26.2737 4.44175 26.1467 4.39282 26.0119C4.13401 25.299 4.72374 24.4144 5.90321 22.6452L7.19492 20.7076C7.34066 20.489 7.41354 20.3797 7.48309 20.2703C8.44248 18.7616 9.05261 17.0576 9.2689 15.2828C9.28458 15.1542 9.29766 15.0234 9.3238 14.762L9.75372 10.4628Z" fill="#3C77CF"/>
<path d="M15.1022 30.9441C15.2731 31.1036 15.6498 31.2445 16.1737 31.345C16.6976 31.4455 17.3396 31.5 18 31.5C18.6604 31.5 19.3024 31.4455 19.8263 31.345C20.3502 31.2445 20.7269 31.1036 20.8978 30.9441" stroke="#3C77CF" stroke-width="3" stroke-linecap="round"/>
</svg>
