<svg width="77" height="78" viewBox="0 0 77 78" fill="none" xmlns="http://www.w3.org/2000/svg">
<circle cx="38.5" cy="38.7002" r="37" fill="white" stroke="#3C77CF" stroke-width="3"/>
<path d="M17.875 53.7885V46.2163C17.875 45.1436 18.2448 44.2444 18.9843 43.5188C19.7238 42.7931 20.6128 42.4303 21.6512 42.4303H27.8348C28.4642 42.4303 29.0621 42.588 29.6285 42.9035C30.1949 43.2191 30.6512 43.645 30.9974 44.1813C31.91 45.4118 33.035 46.3741 34.3724 47.0682C35.7098 47.7623 37.1337 48.1094 38.6442 48.1094C40.1862 48.1094 41.6259 47.7623 42.9633 47.0682C44.3007 46.3741 45.41 45.4118 46.2911 44.1813C46.7002 43.645 47.1801 43.2191 47.7308 42.9035C48.2815 42.588 48.8558 42.4303 49.4537 42.4303H55.6372C56.7072 42.4303 57.604 42.7931 58.3278 43.5188C59.0516 44.2444 59.4135 45.1436 59.4135 46.2163V53.7885H46.1967V49.4818C45.0953 50.2706 43.9073 50.87 42.6329 51.2802C41.3584 51.6904 40.0288 51.8954 38.6442 51.8954C37.2911 51.8954 35.9694 51.6825 34.6792 51.2565C33.389 50.8306 32.1932 50.2233 31.0918 49.4345V53.7885H17.875ZM38.6442 46.2163C37.4484 46.2163 36.3156 45.9403 35.2456 45.3881C34.1757 44.836 33.2788 44.0709 32.5551 43.0928C32.0201 42.3041 31.3514 41.681 30.549 41.2235C29.7465 40.766 28.8733 40.5373 27.9292 40.5373C28.6215 39.3699 30.0848 38.447 32.3191 37.7687C34.5533 37.0904 36.6617 36.7512 38.6442 36.7512C40.6267 36.7512 42.7351 37.0904 44.9694 37.7687C47.2037 38.447 48.667 39.3699 49.3593 40.5373C48.4467 40.5373 47.5813 40.766 46.7631 41.2235C45.9449 41.681 45.2684 42.3041 44.7334 43.0928C44.0411 44.1025 43.16 44.8755 42.09 45.4118C41.0201 45.9482 39.8715 46.2163 38.6442 46.2163ZM23.5393 40.5373C21.9659 40.5373 20.6285 39.9851 19.5271 38.8809C18.4257 37.7766 17.875 36.4357 17.875 34.8582C17.875 33.2491 18.4257 31.9003 19.5271 30.8118C20.6285 29.7233 21.9659 29.1791 23.5393 29.1791C25.1442 29.1791 26.4895 29.7233 27.5752 30.8118C28.6608 31.9003 29.2037 33.2491 29.2037 34.8582C29.2037 36.4357 28.6608 37.7766 27.5752 38.8809C26.4895 39.9851 25.1442 40.5373 23.5393 40.5373ZM53.7491 40.5373C52.1757 40.5373 50.8383 39.9851 49.7369 38.8809C48.6355 37.7766 48.0848 36.4357 48.0848 34.8582C48.0848 33.2491 48.6355 31.9003 49.7369 30.8118C50.8383 29.7233 52.1757 29.1791 53.7491 29.1791C55.354 29.1791 56.6993 29.7233 57.785 30.8118C58.8706 31.9003 59.4135 33.2491 59.4135 34.8582C59.4135 36.4357 58.8706 37.7766 57.785 38.8809C56.6993 39.9851 55.354 40.5373 53.7491 40.5373ZM38.6442 34.8582C37.0708 34.8582 35.7334 34.306 34.632 33.2018C33.5306 32.0975 32.9799 30.7566 32.9799 29.1791C32.9799 27.57 33.5306 26.2212 34.632 25.1327C35.7334 24.0442 37.0708 23.5 38.6442 23.5C40.2491 23.5 41.5944 24.0442 42.6801 25.1327C43.7657 26.2212 44.3086 27.57 44.3086 29.1791C44.3086 30.7566 43.7657 32.0975 42.6801 33.2018C41.5944 34.306 40.2491 34.8582 38.6442 34.8582Z" fill="#3C77CF"/>
</svg>
