<svg width="40" height="40" viewBox="0 0 40 40" fill="none" xmlns="http://www.w3.org/2000/svg">
<path fill-rule="evenodd" clip-rule="evenodd" d="M20 34.9998C28.2843 34.9998 35 28.284 35 19.9998C35 11.7155 28.2843 4.99976 20 4.99976C11.7157 4.99976 5 11.7155 5 19.9998C5 28.284 11.7157 34.9998 20 34.9998ZM19.656 26.101L27.9893 16.101L25.3466 13.8988L18.2191 22.4518L14.5509 18.7836L12.1184 21.2161L17.1184 26.2161L18.4502 27.5479L19.656 26.101Z" fill="#3C77CF"/>
<path d="M27.9893 16.101L28.3734 16.4211L28.6935 16.037L28.3094 15.7169L27.9893 16.101ZM19.656 26.101L20.0401 26.4211L20.0401 26.4211L19.656 26.101ZM25.3466 13.8988L25.6667 13.5146L25.2826 13.1946L24.9625 13.5787L25.3466 13.8988ZM18.2191 22.4518L17.8655 22.8054L18.2527 23.1925L18.6032 22.7719L18.2191 22.4518ZM14.5509 18.7836L14.9044 18.4301L14.5509 18.0765L14.1973 18.4301L14.5509 18.7836ZM12.1184 21.2161L11.7649 20.8625L11.4113 21.2161L11.7649 21.5696L12.1184 21.2161ZM17.1184 26.2161L17.472 25.8625L17.472 25.8625L17.1184 26.2161ZM18.4502 27.5479L18.0967 27.9015L18.4838 28.2886L18.8343 27.868L18.4502 27.5479ZM34.5 19.9998C34.5 28.0079 28.0081 34.4998 20 34.4998V35.4998C28.5604 35.4998 35.5 28.5602 35.5 19.9998H34.5ZM20 5.49976C28.0081 5.49976 34.5 11.9916 34.5 19.9998H35.5C35.5 11.4393 28.5604 4.49976 20 4.49976V5.49976ZM5.5 19.9998C5.5 11.9916 11.9919 5.49976 20 5.49976V4.49976C11.4396 4.49976 4.5 11.4393 4.5 19.9998H5.5ZM20 34.4998C11.9919 34.4998 5.5 28.0079 5.5 19.9998H4.5C4.5 28.5602 11.4396 35.4998 20 35.4998V34.4998ZM27.6052 15.7809L19.2719 25.7809L20.0401 26.4211L28.3734 16.4211L27.6052 15.7809ZM25.0265 14.2829L27.6692 16.4851L28.3094 15.7169L25.6667 13.5146L25.0265 14.2829ZM18.6032 22.7719L25.7307 14.2188L24.9625 13.5787L17.8349 22.1318L18.6032 22.7719ZM14.1973 19.1372L17.8655 22.8054L18.5726 22.0983L14.9044 18.4301L14.1973 19.1372ZM12.472 21.5696L14.9044 19.1372L14.1973 18.4301L11.7649 20.8625L12.472 21.5696ZM17.472 25.8625L12.472 20.8625L11.7649 21.5696L16.7649 26.5696L17.472 25.8625ZM18.8038 27.1943L17.472 25.8625L16.7649 26.5696L18.0967 27.9015L18.8038 27.1943ZM19.2719 25.7809L18.0661 27.2278L18.8343 27.868L20.0401 26.4211L19.2719 25.7809Z" fill="#3C77CF"/>
<circle cx="20" cy="20" r="15" stroke="#3C77CF" stroke-width="3.44"/>
</svg>
