<svg width="77" height="77" viewBox="0 0 77 77" fill="none" xmlns="http://www.w3.org/2000/svg">
<circle cx="38.5" cy="38.5" r="36.575" fill="white" stroke="#3C77CF" stroke-width="3.85"/>
<path d="M36.7712 26.3075C37.7221 29.0141 38.5511 31.4159 39.2583 33.5128C39.9898 35.6098 40.7091 37.6092 41.4162 39.5111C42.0989 41.4618 42.7938 43.449 43.501 45.4728C44.2081 47.4967 45.0249 49.8009 45.9515 52.3855H42.294C41.4406 52.3855 40.7578 52.3611 40.2458 52.3124C39.7337 52.2636 39.3192 52.1295 39.0022 51.91C38.6365 51.7394 38.3317 51.459 38.0879 51.0688C37.8684 50.6543 37.6246 50.0691 37.3564 49.3132L36.0031 45.2168H26.5667L25.0306 50.1179C24.8355 50.7518 24.6161 51.2273 24.3722 51.5443C24.1528 51.8369 23.8968 52.0442 23.6042 52.1661C23.3359 52.3124 22.9946 52.3855 22.5801 52.3855C22.1655 52.3855 21.6657 52.3855 21.0805 52.3855H16.8744C18.5324 47.8746 20.0808 43.449 21.5194 39.1088C22.9824 34.7442 24.5063 30.4527 26.0913 26.2344C26.2863 25.7711 26.4448 25.3688 26.5667 25.0274C26.6886 24.6617 26.8471 24.3569 27.0422 24.113C27.2617 23.918 27.5543 23.7473 27.92 23.601C28.3101 23.4303 28.8222 23.3084 29.4562 23.2352H32.9308C33.6135 23.2352 34.1499 23.284 34.5401 23.3815C34.9302 23.4547 35.2594 23.601 35.5276 23.8204C35.7958 24.0643 36.0153 24.3935 36.186 24.808C36.3566 25.1981 36.5517 25.698 36.7712 26.3075ZM34.5401 40.0232L31.3946 30.7697L28.2126 40.0232H34.5401ZM48.9961 23.1621H57.0791V52.3855H48.9961V23.1621Z" fill="#3C77CF"/>
</svg>
