<svg width="112" height="37" viewBox="0 0 112 37" fill="none" xmlns="http://www.w3.org/2000/svg">
<g clip-path="url(#clip0_341_1374)">
<path d="M107.854 36.8174H5.07644C2.77422 36.8174 0.965332 34.8374 0.965332 32.3174V5.31738C0.965332 2.79738 2.77422 0.817383 5.07644 0.817383H107.854C110.156 0.817383 111.965 2.79738 111.965 5.31738V32.3174C111.965 34.8374 110.156 36.8174 107.854 36.8174Z" fill="white"/>
<path d="M107.854 1.53738C109.745 1.53738 111.308 3.24738 111.308 5.31738V32.3174C111.308 34.3874 109.745 36.0974 107.854 36.0974H5.07644C3.18533 36.0974 1.62311 34.3874 1.62311 32.3174V5.31738C1.62311 3.24738 3.18533 1.53738 5.07644 1.53738H107.854ZM107.854 0.817383H5.07644C2.77422 0.817383 0.965332 2.88738 0.965332 5.31738V32.3174C0.965332 34.8374 2.77422 36.8174 5.07644 36.8174H107.854C110.156 36.8174 111.965 34.8374 111.965 32.3174V5.31738C111.965 2.88738 110.156 0.817383 107.854 0.817383Z" fill="#A6A6A6"/>
<path d="M57.3256 20.7733C55.3463 20.7733 53.7793 22.3632 53.7793 24.5713C53.7793 26.6911 55.3463 28.3692 57.3256 28.3692C59.3049 28.3692 60.8719 26.7794 60.8719 24.5713C60.8719 22.2748 59.3049 20.7733 57.3256 20.7733ZM57.3256 26.7794C56.2534 26.7794 55.3463 25.8078 55.3463 24.4829C55.3463 23.1581 56.2534 22.1865 57.3256 22.1865C58.3977 22.1865 59.3049 23.0698 59.3049 24.4829C59.3049 25.8078 58.3977 26.7794 57.3256 26.7794ZM49.6557 20.7733C47.6763 20.7733 46.1094 22.3632 46.1094 24.5713C46.1094 26.6911 47.6763 28.3692 49.6557 28.3692C51.635 28.3692 53.202 26.7794 53.202 24.5713C53.202 22.2748 51.635 20.7733 49.6557 20.7733ZM49.6557 26.7794C48.5835 26.7794 47.6763 25.8078 47.6763 24.4829C47.6763 23.1581 48.5835 22.1865 49.6557 22.1865C50.7278 22.1865 51.635 23.0698 51.635 24.4829C51.635 25.8078 50.7278 26.7794 49.6557 26.7794ZM40.5013 21.9215V23.5114H44.0476C43.9651 24.3946 43.6352 25.1012 43.2229 25.5428C42.728 26.0728 41.9033 26.6911 40.5013 26.6911C38.2745 26.6911 36.6251 24.8362 36.6251 22.4515C36.6251 20.0667 38.357 18.2119 40.5013 18.2119C41.6559 18.2119 42.5631 18.7419 43.2229 19.3601L44.295 18.2119C43.3878 17.3287 42.2332 16.6221 40.5837 16.6221C37.6147 16.6221 35.0581 19.2718 35.0581 22.4515C35.0581 25.6312 37.6147 28.2809 40.5837 28.2809C42.2332 28.2809 43.3878 27.7509 44.3775 26.6027C45.3671 25.5428 45.697 24.0413 45.697 22.8931C45.697 22.5398 45.697 22.1865 45.6145 21.9215H40.5013ZM77.9436 23.1581C77.6137 22.2748 76.789 20.7733 74.9746 20.7733C73.1602 20.7733 71.6757 22.2748 71.6757 24.5713C71.6757 26.6911 73.1602 28.3692 75.1396 28.3692C76.7065 28.3692 77.6962 27.3093 78.0261 26.6911L76.8715 25.8078C76.4591 26.4261 75.9643 26.8677 75.1396 26.8677C74.3149 26.8677 73.82 26.5144 73.4077 25.7195L78.1086 23.5997L77.9436 23.1581ZM73.1602 24.3946C73.1602 22.9814 74.2324 22.1865 74.9746 22.1865C75.5519 22.1865 76.1292 22.5398 76.2942 22.9814L73.1602 24.3946ZM69.2841 28.0159H70.851V16.9754H69.2841V28.0159ZM66.8099 21.5682C66.3975 21.1266 65.7378 20.685 64.913 20.685C63.1811 20.685 61.5317 22.3632 61.5317 24.4829C61.5317 26.6027 63.0986 28.1926 64.913 28.1926C65.7378 28.1926 66.3975 27.7509 66.7274 27.3093H66.8099V27.8393C66.8099 29.2525 66.0676 30.0474 64.913 30.0474C64.0058 30.0474 63.3461 29.3408 63.1811 28.7225L61.8616 29.3408C62.2739 30.3124 63.2636 31.5489 64.9955 31.5489C66.8099 31.5489 68.2944 30.4007 68.2944 27.6626V20.95H66.8099V21.5682ZM64.9955 26.7794C63.9234 26.7794 63.0162 25.8078 63.0162 24.4829C63.0162 23.1581 63.9234 22.1865 64.9955 22.1865C66.0676 22.1865 66.8924 23.1581 66.8924 24.4829C66.8924 25.8078 66.0676 26.7794 64.9955 26.7794ZM85.1187 16.9754H81.4075V28.0159H82.9744V23.8647H85.1187C86.8506 23.8647 88.5001 22.5398 88.5001 20.42C88.5001 18.3002 86.8506 16.9754 85.1187 16.9754ZM85.2012 22.2748H82.9744V18.4769H85.2012C86.3558 18.4769 87.0156 19.5368 87.0156 20.3317C86.9331 21.3033 86.2733 22.2748 85.2012 22.2748ZM94.6855 20.685C93.5309 20.685 92.3763 21.2149 91.9639 22.3632L93.3659 22.9814C93.6958 22.3632 94.1906 22.1865 94.7679 22.1865C95.5927 22.1865 96.3349 22.7165 96.4174 23.5997V23.688C96.17 23.5114 95.5102 23.2464 94.8504 23.2464C93.3659 23.2464 91.8814 24.1296 91.8814 25.7195C91.8814 27.221 93.1185 28.1926 94.4381 28.1926C95.5102 28.1926 96.005 27.6626 96.4174 27.1327H96.4999V28.0159H97.9844V23.7763C97.8194 21.8332 96.4174 20.685 94.6855 20.685ZM94.5205 26.7794C94.0257 26.7794 93.2834 26.5144 93.2834 25.8078C93.2834 24.9246 94.1906 24.6596 94.9329 24.6596C95.5927 24.6596 95.9226 24.8362 96.3349 25.0129C96.17 26.0728 95.3453 26.7794 94.5205 26.7794ZM103.18 20.95L101.448 25.7195H101.366L99.5513 20.95H97.9019L100.623 27.6626L99.0565 31.3722H100.623L104.83 20.95H103.18ZM89.3248 28.0159H90.8918V16.9754H89.3248V28.0159Z" fill="#666666"/>
<path d="M18.9497 19.258L9.37975 30.2801C9.24151 30.0523 9.14344 29.7151 9.14344 29.3023V9.12121C9.14344 8.76212 9.17968 8.47771 9.25426 8.26857L18.9497 19.258Z" fill="#666666" stroke="white" stroke-width="0.498794"/>
<path d="M23.5373 15.2127L27.6822 17.7754C28.2348 18.1171 28.4662 18.5351 28.4662 18.9114C28.4662 19.287 28.2355 19.7044 27.6848 20.0457L23.5643 22.4532L20.2435 18.8603V18.7766L23.5373 15.2127Z" fill="#666666" stroke="white" stroke-width="0.498794"/>
<path d="M10.0429 29.4286L19.7753 18.7492L22.7803 22.0466L11.26 29.3197C10.9215 29.4833 10.6453 29.5521 10.4227 29.5434C10.2823 29.5379 10.1569 29.5015 10.0429 29.4286Z" fill="#666666" stroke="white" stroke-width="0.498794"/>
<path d="M11.2501 7.46838C11.2505 7.4686 11.2508 7.46882 11.2512 7.46904L22.7802 14.6946L19.7745 18.0081L10.0393 7.36153C10.1606 7.27492 10.2913 7.22693 10.4325 7.21581C10.6464 7.19897 10.9165 7.26425 11.2501 7.46838Z" fill="#666666" stroke="white" stroke-width="0.498794"/>
<path opacity="0.2" d="M23.1656 22.7686L11.3921 30.184C10.7426 30.6361 10.1742 30.5457 9.76821 30.184L9.68701 30.2744L9.76821 30.3648C10.1742 30.7266 10.7426 30.817 11.3921 30.3648L23.1656 22.7686Z" fill="white"/>
<path opacity="0.12" d="M9.22546 29.7015C8.97726 29.4253 8.89453 28.9651 8.89453 28.4127V28.5048C8.89453 29.0571 9.06 29.5174 9.3082 29.7935V29.7015H9.22546ZM27.0958 19.5756L22.9591 22.1531L23.0419 22.2452L27.0958 19.6677C27.6749 19.2994 27.9231 18.8392 27.9231 18.3789C27.9231 18.8392 27.5922 19.2074 27.0958 19.5756Z" fill="white"/>
<path opacity="0.25" d="M10.9624 7.36601L27.0953 17.224C27.5917 17.5792 27.9226 17.9344 27.9226 18.3785C27.9226 17.9344 27.6744 17.4904 27.0953 17.1352L10.9624 7.2772C9.80411 6.56672 8.89404 7.09958 8.89404 8.52054V8.60935C8.89404 7.2772 9.80411 6.65553 10.9624 7.36601Z" fill="#666666"/>
<path d="M38.5183 9.58418C38.4635 9.41224 38.3898 9.25826 38.2972 9.12222C38.2066 8.9843 38.0979 8.86716 37.9713 8.7708C37.8447 8.67255 37.7002 8.59792 37.5377 8.54691C37.3771 8.4959 37.2005 8.47039 37.0077 8.47039C36.6809 8.47039 36.3861 8.55447 36.1235 8.72262C35.8609 8.89078 35.6531 9.13734 35.5 9.46231C35.3489 9.78539 35.2733 10.1812 35.2733 10.6498C35.2733 11.1202 35.3498 11.5179 35.5029 11.8429C35.6559 12.1679 35.8656 12.4145 36.132 12.5826C36.3984 12.7508 36.7017 12.8348 37.0418 12.8348C37.3573 12.8348 37.6322 12.7706 37.8665 12.6421C38.1026 12.5136 38.285 12.3323 38.4134 12.098C38.5438 11.8618 38.609 11.5841 38.609 11.2648L38.8357 11.3073H37.175V10.5846H39.4564V11.2449C39.4564 11.7324 39.3525 12.1556 39.1446 12.5146C38.9387 12.8717 38.6534 13.1475 38.2887 13.3421C37.926 13.5367 37.5103 13.634 37.0418 13.634C36.5165 13.634 36.0555 13.5131 35.6587 13.2713C35.2639 13.0294 34.9559 12.6865 34.7348 12.2425C34.5138 11.7966 34.4033 11.2676 34.4033 10.6554C34.4033 10.1926 34.4675 9.77689 34.596 9.40846C34.7244 9.04004 34.9049 8.72735 35.1373 8.47039C35.3716 8.21155 35.6465 8.01411 35.962 7.87807C36.2794 7.74015 36.6261 7.67119 37.0021 7.67119C37.3157 7.67119 37.6076 7.71748 37.8778 7.81006C38.1499 7.90264 38.3917 8.03395 38.6033 8.20399C38.8168 8.37403 38.9935 8.5762 39.1333 8.81048C39.2731 9.04287 39.3676 9.30077 39.4167 9.58418H38.5183ZM40.4084 13.5547V7.75054H44.0473V8.5044H41.2841V10.2729H43.8575V11.0239H41.2841V12.8008H44.0814V13.5547H40.4084ZM44.7712 8.5044V7.75054H49.2632V8.5044H47.4523V13.5547H46.5794V8.5044H44.7712ZM52.9244 7.75054V13.5547H52.0487V7.75054H52.9244ZM53.7539 8.5044V7.75054H58.2459V8.5044H56.4349V13.5547H55.562V8.5044H53.7539ZM66.0731 10.6526C66.0731 11.2723 65.9598 11.8051 65.7331 12.251C65.5063 12.695 65.1955 13.037 64.8007 13.277C64.4077 13.515 63.9608 13.634 63.4601 13.634C62.9576 13.634 62.5088 13.515 62.114 13.277C61.721 13.037 61.4111 12.6941 61.1844 12.2482C60.9577 11.8023 60.8443 11.2704 60.8443 10.6526C60.8443 10.0329 60.9577 9.50104 61.1844 9.05704C61.4111 8.61115 61.721 8.26917 62.114 8.03111C62.5088 7.79116 62.9576 7.67119 63.4601 7.67119C63.9608 7.67119 64.4077 7.79116 64.8007 8.03111C65.1955 8.26917 65.5063 8.61115 65.7331 9.05704C65.9598 9.50104 66.0731 10.0329 66.0731 10.6526ZM65.2059 10.6526C65.2059 10.1803 65.1294 9.78256 64.9764 9.45948C64.8252 9.13451 64.6174 8.88889 64.3529 8.72262C64.0902 8.55447 63.7927 8.47039 63.4601 8.47039C63.1257 8.47039 62.8272 8.55447 62.5646 8.72262C62.302 8.88889 62.0941 9.13451 61.9411 9.45948C61.7899 9.78256 61.7144 10.1803 61.7144 10.6526C61.7144 11.125 61.7899 11.5236 61.9411 11.8486C62.0941 12.1717 62.302 12.4173 62.5646 12.5854C62.8272 12.7517 63.1257 12.8348 63.4601 12.8348C63.7927 12.8348 64.0902 12.7517 64.3529 12.5854C64.6174 12.4173 64.8252 12.1717 64.9764 11.8486C65.1294 11.5236 65.2059 11.125 65.2059 10.6526ZM71.69 7.75054V13.5547H70.8852L67.9349 9.29794H67.8811V13.5547H67.0053V7.75054H67.8159L70.769 12.013H70.8228V7.75054H71.69Z" fill="#666666"/>
</g>
<defs>
<clipPath id="clip0_341_1374">
<rect width="111" height="36" fill="white" transform="translate(0.965332 0.817383)"/>
</clipPath>
</defs>
</svg>
