<svg width="28" height="28" viewBox="0 0 28 28" fill="none" xmlns="http://www.w3.org/2000/svg">
<g clip-path="url(#clip0_349_3061)">
<rect width="28" height="28" transform="translate(28 28) rotate(180)" fill="white"/>
<path d="M7.875 21.875L20.125 21.875C24.4672 21.875 28 18.3422 28 14C28 9.65781 24.4672 6.125 20.125 6.125L7.875 6.125C3.53281 6.125 -1.06806e-06 9.65781 -6.88454e-07 14C-3.08848e-07 18.3422 3.53281 21.875 7.875 21.875ZM7.875 7.875C9.08641 7.875 10.2706 8.23423 11.2779 8.90725C12.2851 9.58027 13.0702 10.5369 13.5338 11.6561C13.9973 12.7753 14.1186 14.0068 13.8823 15.1949C13.646 16.3831 13.0626 17.4744 12.206 18.331C11.3494 19.1876 10.2581 19.771 9.06993 20.0073C7.8818 20.2436 6.65026 20.1224 5.53106 19.6588C4.41187 19.1952 3.45527 18.4101 2.78225 17.4029C2.10922 16.3956 1.75 15.2114 1.75 14C1.75174 12.3761 2.3976 10.8192 3.54589 9.67089C4.69417 8.52261 6.25108 7.87674 7.875 7.875Z" fill="#C6C6C6"/>
</g>
<defs>
<clipPath id="clip0_349_3061">
<rect width="28" height="28" fill="white" transform="translate(28 28) rotate(180)"/>
</clipPath>
</defs>
</svg>
