<svg width="24" height="24" viewBox="0 0 24 24" fill="none" xmlns="http://www.w3.org/2000/svg">
<path d="M12 2.25C9.11625 2.25 6.75 4.61625 6.75 7.5V9.65625C6.03801 10.3523 5.47223 11.1835 5.08585 12.1011C4.69948 13.0188 4.5003 14.0043 4.5 15C4.5 19.1325 7.8675 22.5 12 22.5C16.1325 22.5 19.5 19.1325 19.5 15C19.4997 14.0043 19.3005 13.0188 18.9141 12.1011C18.5278 11.1835 17.962 10.3523 17.25 9.65625V7.5C17.25 4.61625 14.8837 2.25 12 2.25ZM12 3.75C14.0662 3.75 15.75 5.43375 15.75 7.5V8.53125C14.6438 7.88625 13.3695 7.5 12 7.5C10.6305 7.5 9.35625 7.887 8.25 8.53125V7.5C8.25 5.43375 9.93375 3.75 12 3.75ZM12 9C15.3225 9 18 11.6775 18 15C18 18.3225 15.3225 21 12 21C8.6775 21 6 18.3225 6 15C6 11.6775 8.6775 9 12 9ZM12 13.5C11.6022 13.5 11.2206 13.658 10.9393 13.9393C10.658 14.2206 10.5 14.6022 10.5 15C10.5 15.555 10.8022 16.0297 11.25 16.29V18.75H12.75V16.29C13.1978 16.0297 13.5 15.555 13.5 15C13.5 14.6022 13.342 14.2206 13.0607 13.9393C12.7794 13.658 12.3978 13.5 12 13.5Z" fill="#C6C6C6"/>
</svg>
