<svg id="Layer_1" data-name="Layer 1" xmlns="http://www.w3.org/2000/svg" xmlns:xlink="http://www.w3.org/1999/xlink" viewBox="0 0 101.36 45.53"><defs><style>.cls-1{fill:none;}.cls-2{fill:#003048;}.cls-3{fill:url(#linear-gradient);}.cls-4{fill:url(#linear-gradient-2);}.cls-5{fill:url(#linear-gradient-3);}.cls-6{fill:url(#linear-gradient-4);}.cls-7{fill:url(#linear-gradient-5);}.cls-8{fill:url(#linear-gradient-6);}.cls-9{fill:url(#linear-gradient-7);}.cls-10{fill:url(#linear-gradient-8);}.cls-11{fill:url(#linear-gradient-9);}.cls-12{fill:url(#linear-gradient-10);}.cls-13{fill:url(#linear-gradient-11);}.cls-14{fill:url(#linear-gradient-12);}.cls-15{fill:url(#linear-gradient-13);}.cls-16{fill:url(#linear-gradient-14);}.cls-17{fill:#fff;}</style><linearGradient id="linear-gradient" x1="57.07" y1="58.82" x2="56.75" y2="30.97" gradientUnits="userSpaceOnUse"><stop offset="0" stop-color="#3585c6"/><stop offset="1" stop-color="#4775b9"/></linearGradient><linearGradient id="linear-gradient-2" x1="72.36" y1="65.46" x2="71.97" y2="31.46" xlink:href="#linear-gradient"/><linearGradient id="linear-gradient-3" x1="-253.85" y1="-6.14" x2="-253.85" y2="46.34" gradientTransform="matrix(1, 0, -0.35, 1, 299.65, 0)" xlink:href="#linear-gradient"/><linearGradient id="linear-gradient-4" x1="-252.03" y1="-6.14" x2="-252.03" y2="46.34" gradientTransform="matrix(1, 0, -0.35, 1, 299.65, 0)" xlink:href="#linear-gradient"/><linearGradient id="linear-gradient-5" x1="-241.94" y1="48.24" x2="-242.29" y2="17.27" gradientTransform="matrix(1, 0, -0.35, 1, 299.65, 0)" xlink:href="#linear-gradient"/><linearGradient id="linear-gradient-6" x1="24.22" y1="-29.06" x2="24.22" y2="77.98" xlink:href="#linear-gradient"/><linearGradient id="linear-gradient-7" x1="-247.36" y1="-6.14" x2="-247.36" y2="46.34" gradientTransform="matrix(1, 0, -0.35, 1, 299.65, 0)" xlink:href="#linear-gradient"/><linearGradient id="linear-gradient-8" x1="-268.18" y1="-6.14" x2="-268.18" y2="46.34" gradientTransform="matrix(1, 0, -0.35, 1, 299.33, -0.23)" xlink:href="#linear-gradient"/><linearGradient id="linear-gradient-9" x1="-265.62" y1="-6.14" x2="-265.62" y2="46.34" gradientTransform="matrix(1, 0, -0.35, 1, 299.33, -0.23)" xlink:href="#linear-gradient"/><linearGradient id="linear-gradient-10" x1="-267.48" y1="-6.14" x2="-267.48" y2="46.34" gradientTransform="matrix(0.48, 0.88, -1.05, 0.17, 179.84, 258.52)" xlink:href="#linear-gradient"/><linearGradient id="linear-gradient-11" x1="-264.92" y1="-6.14" x2="-264.92" y2="46.34" gradientTransform="matrix(1, 0, -0.35, 1, 299.33, -0.23)" xlink:href="#linear-gradient"/><linearGradient id="linear-gradient-12" x1="83.49" y1="36.41" x2="101.35" y2="36.41" xlink:href="#linear-gradient"/><linearGradient id="linear-gradient-13" x1="92.92" y1="8.23" x2="97.37" y2="8.23" xlink:href="#linear-gradient"/><linearGradient id="linear-gradient-14" x1="99.15" y1="7.54" x2="101.68" y2="7.54" xlink:href="#linear-gradient"/></defs><polygon class="cls-1" points="32.35 26.37 32.35 26.37 33.95 23.45 32.35 26.37"/><path class="cls-1" d="M48.39,16c0,.43,0,.87-.08,1.32C48.35,16.89,48.38,16.45,48.39,16Z" transform="translate(-0.32 -0.23)"/><path class="cls-1" d="M46.67,23.87c.12-.32.27-.63.38-.95a25,25,0,0,0,.82-2.84,25,25,0,0,1-.82,2.84C46.94,23.24,46.79,23.55,46.67,23.87Z" transform="translate(-0.32 -0.23)"/><path class="cls-1" d="M48.31,17.34a22.91,22.91,0,0,1-.44,2.74A22.91,22.91,0,0,0,48.31,17.34Z" transform="translate(-0.32 -0.23)"/><path class="cls-1" d="M45.55,19.39a2.57,2.57,0,0,0-1-.69,2.57,2.57,0,0,1,1,.69c.53.58.49,1.53-.11,2.84a7,7,0,0,1-.68,1.2,7,7,0,0,0,.68-1.2C46,20.92,46.08,20,45.55,19.39Z" transform="translate(-0.32 -0.23)"/><path class="cls-2" d="M61.9,22.3a5.71,5.71,0,0,0,5.16-3.13H64.65a2.51,2.51,0,0,1-2.05,1c-1.29,0-1.83-1-1.34-2.5h6.33l.25-.8c1.09-3.49-.29-5.19-2.73-5.19C62.4,11.71,60,13.85,59,17S59.06,22.3,61.9,22.3Zm2.61-8.49c1.12,0,1.63.88,1.24,2.13H61.81A3.09,3.09,0,0,1,64.51,13.81Z" transform="translate(-0.32 -0.23)"/><path class="cls-2" d="M70.38,22.28a4,4,0,0,0,3.22-1.6h.07l-.45,1.41h2.39l2.17-6.91c.77-2.47-.83-3.47-2.84-3.47a5.24,5.24,0,0,0-5,3.17h2.4a2.06,2.06,0,0,1,1.89-1.13c.94,0,1.31.51,1.06,1.36l-.26.83-2.34.13a4.57,4.57,0,0,0-4.44,3.15C67.62,21.26,68.61,22.28,70.38,22.28Zm.32-3.13a2,2,0,0,1,1.85-1.34c.45,0,1.55-.11,1.94-.13l-.24.75a2.76,2.76,0,0,1-2.55,1.93C70.9,20.36,70.45,19.94,70.7,19.15Z" transform="translate(-0.32 -0.23)"/><path class="cls-2" d="M81.23,22.3a5.24,5.24,0,0,0,5.17-3.38c.45-1.47-.15-2.36-1.81-2.77l-1.54-.38c-.8-.21-1-.57-.87-1a1.8,1.8,0,0,1,1.76-1.06c.84,0,1.27.48,1.15,1.19h2.37c.47-1.94-.59-3.17-2.93-3.17a4.82,4.82,0,0,0-4.9,3.19c-.5,1.51.11,2.53,1.75,2.91l1.42.34c.81.2,1.1.53.94,1.06a1.85,1.85,0,0,1-1.88,1.07c-.92,0-1.38-.42-1.25-1.23H78.07C77.65,21.05,78.72,22.3,81.23,22.3Z" transform="translate(-0.32 -0.23)"/><path class="cls-2" d="M86,25.89c.31,0,.77.05,1.26.05a5,5,0,0,0,4.35-2.72l7.18-11.37H96.09l-4.32,7.54h-.11l.43-7.54H89.44l0,10.53-.29.43c-.59.89-1,.94-1.51.94l-1,0Z" transform="translate(-0.32 -0.23)"/><path class="cls-3" d="M60.48,27a12.42,12.42,0,0,0-8,2.38,11.13,11.13,0,0,0-3.88,6.92,13.21,13.21,0,0,0-.23,2.58,12,12,0,0,0,0,1.21,6.43,6.43,0,0,0,1.23,3.09,4.78,4.78,0,0,0,1.48,1.27,8.58,8.58,0,0,0,1.87.78,10.78,10.78,0,0,0,2,.42,16.88,16.88,0,0,0,2,.12h4.64a14.16,14.16,0,0,0,.12-1.65A3,3,0,0,0,61.52,43a1.19,1.19,0,0,0-.7-.57,4,4,0,0,0-1.34-.18H58a6.1,6.1,0,0,1-2.53-.43,2.79,2.79,0,0,1-1.36-1.26,3.73,3.73,0,0,1-.48-1.87c0-.08,0-.18,0-.27a10.28,10.28,0,0,1,.21-2.06,13,13,0,0,1,.72-2.48,6.12,6.12,0,0,1,1.22-1.87,5.15,5.15,0,0,1,1.85-1.16,7.37,7.37,0,0,1,2.59-.41h1.92a3.8,3.8,0,0,0,1-.17A1.85,1.85,0,0,0,64,29.8a4.25,4.25,0,0,0,.63-1A8.06,8.06,0,0,0,65.17,27Z" transform="translate(-0.32 -0.23)"/><path class="cls-4" d="M80.75,41.33c-.21-1.3-.4-2.58-.6-3.83-.18-1-.35-2.1-.51-3.19,0-.23-.08-.43-.11-.66-.2-1.35-.44-2.89-.71-4.63-.06-.39-.12-.71-.18-1a1.33,1.33,0,0,0-.3-.62,1.19,1.19,0,0,0-.58-.3,5.23,5.23,0,0,0-1-.08H74.52a4.36,4.36,0,0,0-1,.22,3.42,3.42,0,0,0-.64.34,3,3,0,0,0-.42.58c-.12.22-.27.49-.45.79-1.46,2.55-2.88,5.15-4.27,7.77-.08.17-.17.32-.26.48q-2.2,4.19-4.65,8.54h3.66a1.6,1.6,0,0,0,.69-.14,1.67,1.67,0,0,0,.58-.42,3.41,3.41,0,0,0,.58-.9l1.6-3.15h6l.36,2.63a6.05,6.05,0,0,0,.26,1.12,1,1,0,0,0,.47.55,1.36,1.36,0,0,0,.75.26c.32,0,.75.05,1.3.05h2.34C81.18,44.11,81,42.63,80.75,41.33Zm-9.12-3.5,1-1.95,2.15-4,.5,3.45.36,2.49Z" transform="translate(-0.32 -0.23)"/><path class="cls-5" d="M29.38,32.5l-.9,1.65L22.69,44.79A36.73,36.73,0,0,0,42.08,31.87a23.09,23.09,0,0,1-5.48.63Z" transform="translate(-0.32 -0.23)"/><path class="cls-6" d="M45.55,19.39a2.57,2.57,0,0,0-1-.69A5,5,0,0,0,43,18.38a10.9,10.9,0,0,0-1.29-.08H37.2l-2.93,5.38-1.6,2.93h4.46a10.89,10.89,0,0,0,1.38-.09,8.51,8.51,0,0,0,4-1.08,6.35,6.35,0,0,0,2.28-2,7,7,0,0,0,.68-1.2C46,20.92,46.08,20,45.55,19.39Z" transform="translate(-0.32 -0.23)"/><path class="cls-7" d="M54.18,22.48A10.46,10.46,0,0,0,55.65,18a4.91,4.91,0,0,0-.1-1.69,4.08,4.08,0,0,0-.65-1.44,6.82,6.82,0,0,0-1.17-1.11A4.94,4.94,0,0,0,52.17,13a10.77,10.77,0,0,0-4.05-.73,19.28,19.28,0,0,1,.27,2.46q0,.63,0,1.29c0,.43,0,.87-.08,1.32a22.91,22.91,0,0,1-.44,2.74,25,25,0,0,1-.82,2.84c-.11.32-.26.63-.38.95a29.88,29.88,0,0,1-2.24,4.54,34.53,34.53,0,0,1-2.35,3.46,17,17,0,0,0,4.87-2A19.82,19.82,0,0,0,54.18,22.48Z" transform="translate(-0.32 -0.23)"/><path class="cls-8" d="M32.3.23C19.77.23,6.06,10.39,1.67,22.92-2.29,34.26,2.75,43.63,13,45.31l6.3-11.58,1.85-3.4,2.05-3.76H5.33l3.14-1.92H24.28l1.2-2.22H9.71l3.14-1.92H26.53l.58-1.06.62-1.15H14.1l3.14-1.92H28.78L30,14.17H18.48l3.14-1.92H47.87l.25,0C46.81,5.11,41,.23,32.3.23Z" transform="translate(-0.32 -0.23)"/><path class="cls-9" d="M48.12,12.27h0l-.25,0Z" transform="translate(-0.32 -0.23)"/><polygon class="cls-10" points="19.01 33.5 20.86 30.09 20.86 30.09 19.01 33.5"/><polygon class="cls-11" points="27.41 18.07 26.79 19.21 27.41 18.07 27.41 18.07"/><rect class="cls-12" x="20.07" y="28.45" width="4.28" transform="translate(-13.72 34.12) rotate(-61.44)"/><rect class="cls-13" x="29.06" y="13.78" height="2.52"/><path class="cls-14" d="M101.34,31.53A4,4,0,0,0,101,30a5.34,5.34,0,0,0-1.33-1.61,5.75,5.75,0,0,0-2.76-1.09,15.68,15.68,0,0,0-3-.23h-8l-.6,4.69-1.77,14h5.27l.88-7h1.47a2.9,2.9,0,0,1,2.08.71,4.93,4.93,0,0,1,1.15,1.77,13.83,13.83,0,0,1,.58,2.26c.13.81.27,1.54.42,2.22H101l-.45-1.39c-.17-.54-.34-1.17-.52-1.87a12.1,12.1,0,0,0-.84-2.26,9.9,9.9,0,0,0-.93-1.54,5.17,5.17,0,0,0-.9-.91,3.1,3.1,0,0,0-.73-.44c.08,0,.34-.12.77-.25a5.73,5.73,0,0,0,1.46-.74,6,6,0,0,0,1.53-1.4,4.45,4.45,0,0,0,.88-2.25l0-.31C101.35,32.3,101.35,32,101.34,31.53Zm-5.12,1.38,0,.11a2.28,2.28,0,0,1-1.08,1.85,5.21,5.21,0,0,1-1.28.41,9.75,9.75,0,0,1-1.88.16h-1.9l.63-4.95h1.9a11.6,11.6,0,0,1,1.91.13,2.54,2.54,0,0,1,1.07.41h0a2.15,2.15,0,0,1,.45.59,1.89,1.89,0,0,1,.21.72A2.74,2.74,0,0,1,96.22,32.91Z" transform="translate(-0.32 -0.23)"/><path class="cls-15" d="M93.65,10.3a2.35,2.35,0,0,0,3.15-.88,2.34,2.34,0,0,0-.16-3.26A2.33,2.33,0,0,0,93.5,7,2.34,2.34,0,0,0,93.65,10.3Z" transform="translate(-0.32 -0.23)"/><path class="cls-16" d="M101.26,6.37a1.32,1.32,0,0,0-1.78.49,1.32,1.32,0,0,0,.09,1.85,1.32,1.32,0,0,0,1.78-.5A1.31,1.31,0,0,0,101.26,6.37Z" transform="translate(-0.32 -0.23)"/><path class="cls-17" d="M21.18,30.33l-1.85,3.4L13,45.31a20.45,20.45,0,0,0,3.39.3,26,26,0,0,0,6.27-.82l5.79-10.64.9-1.65H36.6a23.09,23.09,0,0,0,5.48-.63,34.53,34.53,0,0,0,2.35-3.46,29.88,29.88,0,0,0,2.24-4.54c.12-.32.27-.63.38-.95a25,25,0,0,0,.82-2.84,22.91,22.91,0,0,0,.44-2.74c0-.45.07-.89.08-1.32s0-.87,0-1.29a19.28,19.28,0,0,0-.27-2.46h0l-.25,0H21.62l-3.14,1.92H30l-1.2,2.21H17.24L14.1,18.3H27.73l-.62,1.15-.58,1.06H12.85L9.71,22.43H25.48l-1.2,2.22H8.47L5.33,26.57h17.9Zm19.18-12H41.7a10.9,10.9,0,0,1,1.29.08,5,5,0,0,1,1.52.32,2.57,2.57,0,0,1,1,.69c.53.58.49,1.53-.11,2.84a7,7,0,0,1-.68,1.2,6.35,6.35,0,0,1-2.28,2,8.51,8.51,0,0,1-4,1.08,10.89,10.89,0,0,1-1.38.09H32.67l1.6-2.93L37.2,18.3Z" transform="translate(-0.32 -0.23)"/></svg>