<svg width="30" height="30" viewBox="0 0 30 30" fill="none" xmlns="http://www.w3.org/2000/svg">
<path d="M15 21.5625C15.3683 21.5625 15.6771 21.4367 15.9262 21.1852C16.1754 20.9336 16.3 20.6219 16.3 20.25C16.3 19.8781 16.1754 19.5664 15.9262 19.3148C15.6771 19.0633 15.3683 18.9375 15 18.9375C14.6317 18.9375 14.3229 19.0633 14.0737 19.3148C13.8246 19.5664 13.7 19.8781 13.7 20.25C13.7 20.6219 13.8246 20.9336 14.0737 21.1852C14.3229 21.4367 14.6317 21.5625 15 21.5625ZM15 16.3125C15.3683 16.3125 15.6771 16.1867 15.9262 15.9352C16.1754 15.6836 16.3 15.3719 16.3 15C16.3 14.6281 16.1754 14.3164 15.9262 14.0648C15.6771 13.8133 15.3683 13.6875 15 13.6875C14.6317 13.6875 14.3229 13.8133 14.0737 14.0648C13.8246 14.3164 13.7 14.6281 13.7 15C13.7 15.3719 13.8246 15.6836 14.0737 15.9352C14.3229 16.1867 14.6317 16.3125 15 16.3125ZM15 11.0625C15.3683 11.0625 15.6771 10.9367 15.9262 10.6852C16.1754 10.4336 16.3 10.1219 16.3 9.75C16.3 9.37812 16.1754 9.06641 15.9262 8.81484C15.6771 8.56328 15.3683 8.4375 15 8.4375C14.6317 8.4375 14.3229 8.56328 14.0737 8.81484C13.8246 9.06641 13.7 9.37812 13.7 9.75C13.7 10.1219 13.8246 10.4336 14.0737 10.6852C14.3229 10.9367 14.6317 11.0625 15 11.0625ZM25.4 25.5H4.6C3.885 25.5 3.27292 25.243 2.76375 24.7289C2.25458 24.2148 2 23.5969 2 22.875V17.625C2.715 17.625 3.32708 17.368 3.83625 16.8539C4.34542 16.3398 4.6 15.7219 4.6 15C4.6 14.2781 4.34542 13.6602 3.83625 13.1461C3.32708 12.632 2.715 12.375 2 12.375V7.125C2 6.40312 2.25458 5.78516 2.76375 5.27109C3.27292 4.75703 3.885 4.5 4.6 4.5H25.4C26.115 4.5 26.7271 4.75703 27.2362 5.27109C27.7454 5.78516 28 6.40312 28 7.125V12.375C27.285 12.375 26.6729 12.632 26.1637 13.1461C25.6546 13.6602 25.4 14.2781 25.4 15C25.4 15.7219 25.6546 16.3398 26.1637 16.8539C26.6729 17.368 27.285 17.625 28 17.625V22.875C28 23.5969 27.7454 24.2148 27.2362 24.7289C26.7271 25.243 26.115 25.5 25.4 25.5ZM25.4 22.875V19.5281C24.5983 19.0469 23.9646 18.407 23.4987 17.6086C23.0329 16.8102 22.8 15.9406 22.8 15C22.8 14.0594 23.0329 13.1898 23.4987 12.3914C23.9646 11.593 24.5983 10.9531 25.4 10.4719V7.125H4.6V10.4719C5.40167 10.9531 6.03542 11.593 6.50125 12.3914C6.96708 13.1898 7.2 14.0594 7.2 15C7.2 15.9406 6.96708 16.8102 6.50125 17.6086C6.03542 18.407 5.40167 19.0469 4.6 19.5281V22.875H25.4Z" fill="#3C77CF"/>
</svg>
