<svg width="30" height="30" viewBox="0 0 30 30" fill="none" xmlns="http://www.w3.org/2000/svg">
<path d="M17.3636 16.3125C16.3788 16.3125 15.5417 15.9297 14.8523 15.1641C14.1629 14.3984 13.8182 13.4687 13.8182 12.375C13.8182 11.2812 14.1629 10.3516 14.8523 9.58594C15.5417 8.82031 16.3788 8.4375 17.3636 8.4375C18.3485 8.4375 19.1856 8.82031 19.875 9.58594C20.5644 10.3516 20.9091 11.2812 20.9091 12.375C20.9091 13.4687 20.5644 14.3984 19.875 15.1641C19.1856 15.9297 18.3485 16.3125 17.3636 16.3125ZM9.09091 20.25C8.44091 20.25 7.88447 19.993 7.42159 19.4789C6.95871 18.9648 6.72727 18.3469 6.72727 17.625V7.125C6.72727 6.40312 6.95871 5.78516 7.42159 5.27109C7.88447 4.75703 8.44091 4.5 9.09091 4.5H25.6364C26.2864 4.5 26.8428 4.75703 27.3057 5.27109C27.7686 5.78516 28 6.40312 28 7.125V17.625C28 18.3469 27.7686 18.9648 27.3057 19.4789C26.8428 19.993 26.2864 20.25 25.6364 20.25H9.09091ZM11.4545 17.625H23.2727C23.2727 16.9031 23.5042 16.2852 23.967 15.7711C24.4299 15.257 24.9864 15 25.6364 15V9.75C24.9864 9.75 24.4299 9.49297 23.967 8.97891C23.5042 8.46484 23.2727 7.84687 23.2727 7.125H11.4545C11.4545 7.84687 11.2231 8.46484 10.7602 8.97891C10.2973 9.49297 9.74091 9.75 9.09091 9.75V15C9.74091 15 10.2973 15.257 10.7602 15.7711C11.2231 16.2852 11.4545 16.9031 11.4545 17.625ZM24.4545 25.5H4.36364C3.71364 25.5 3.1572 25.243 2.69432 24.7289C2.23144 24.2148 2 23.5969 2 22.875V8.4375H4.36364V22.875H24.4545V25.5Z" fill="#3C77CF"/>
</svg>
