<svg width="30" height="30" viewBox="0 0 30 30" fill="none" xmlns="http://www.w3.org/2000/svg">
<path d="M13.7 21.5H16.3V13.7H13.7V21.5ZM15 11.1C15.3683 11.1 15.6771 10.9754 15.9262 10.7262C16.1754 10.4771 16.3 10.1683 16.3 9.8C16.3 9.43167 16.1754 9.12292 15.9262 8.87375C15.6771 8.62458 15.3683 8.5 15 8.5C14.6317 8.5 14.3229 8.62458 14.0737 8.87375C13.8246 9.12292 13.7 9.43167 13.7 9.8C13.7 10.1683 13.8246 10.4771 14.0737 10.7262C14.3229 10.9754 14.6317 11.1 15 11.1ZM15 28C13.2017 28 11.5117 27.6587 9.93 26.9762C8.34833 26.2937 6.9725 25.3675 5.8025 24.1975C4.6325 23.0275 3.70625 21.6517 3.02375 20.07C2.34125 18.4883 2 16.7983 2 15C2 13.2017 2.34125 11.5117 3.02375 9.93C3.70625 8.34833 4.6325 6.9725 5.8025 5.8025C6.9725 4.6325 8.34833 3.70625 9.93 3.02375C11.5117 2.34125 13.2017 2 15 2C16.7983 2 18.4883 2.34125 20.07 3.02375C21.6517 3.70625 23.0275 4.6325 24.1975 5.8025C25.3675 6.9725 26.2937 8.34833 26.9762 9.93C27.6587 11.5117 28 13.2017 28 15C28 16.7983 27.6587 18.4883 26.9762 20.07C26.2937 21.6517 25.3675 23.0275 24.1975 24.1975C23.0275 25.3675 21.6517 26.2937 20.07 26.9762C18.4883 27.6587 16.7983 28 15 28ZM15 25.4C17.9033 25.4 20.3625 24.3925 22.3775 22.3775C24.3925 20.3625 25.4 17.9033 25.4 15C25.4 12.0967 24.3925 9.6375 22.3775 7.6225C20.3625 5.6075 17.9033 4.6 15 4.6C12.0967 4.6 9.6375 5.6075 7.6225 7.6225C5.6075 9.6375 4.6 12.0967 4.6 15C4.6 17.9033 5.6075 20.3625 7.6225 22.3775C9.6375 24.3925 12.0967 25.4 15 25.4Z" fill="#3C77CF"/>
</svg>
