<svg width="30" height="30" viewBox="0 0 30 30" fill="none" xmlns="http://www.w3.org/2000/svg">
<path d="M15 28C12.7939 28 10.7652 27.4977 8.91364 26.4932C7.06212 25.4886 5.54545 24.1492 4.36364 22.475V25.6364H2V18.5455H9.09091V20.9091H6.16591C7.11136 22.3273 8.3572 23.4697 9.90341 24.3364C11.4496 25.203 13.1485 25.6364 15 25.6364C16.4773 25.6364 17.861 25.3557 19.1511 24.7943C20.4413 24.233 21.564 23.4746 22.5193 22.5193C23.4746 21.564 24.233 20.4413 24.7943 19.1511C25.3557 17.861 25.6364 16.4773 25.6364 15H28C28 16.7924 27.6602 18.4765 26.9807 20.0523C26.3011 21.628 25.3705 23.0068 24.1886 24.1886C23.0068 25.3705 21.628 26.3011 20.0523 26.9807C18.4765 27.6602 16.7924 28 15 28ZM13.9364 23.2727V21.7364C13.0106 21.5197 12.2572 21.1208 11.6761 20.5398C11.0951 19.9587 10.6667 19.1955 10.3909 18.25L12.3409 17.4818C12.5773 18.2894 12.9466 18.8951 13.4489 19.2989C13.9511 19.7027 14.5273 19.9045 15.1773 19.9045C15.8273 19.9045 16.3837 19.7519 16.8466 19.4466C17.3095 19.1413 17.5409 18.6636 17.5409 18.0136C17.5409 17.4424 17.2996 16.9795 16.817 16.625C16.3345 16.2705 15.4727 15.8667 14.2318 15.4136C13.0697 15 12.2178 14.5076 11.6761 13.9364C11.1345 13.3652 10.8636 12.6167 10.8636 11.6909C10.8636 10.8833 11.1443 10.1496 11.7057 9.48977C12.267 8.82992 13.0303 8.40152 13.9955 8.20455V6.72727H16.0636V8.20455C16.7727 8.26364 17.4178 8.54924 17.9989 9.06136C18.5799 9.57348 18.9788 10.1742 19.1955 10.8636L17.3045 11.6318C17.147 11.1788 16.8909 10.7996 16.5364 10.4943C16.1818 10.189 15.6894 10.0364 15.0591 10.0364C14.3697 10.0364 13.8428 10.1841 13.4784 10.4795C13.114 10.775 12.9318 11.1788 12.9318 11.6909C12.9318 12.203 13.1583 12.6068 13.6114 12.9023C14.0644 13.1977 14.8818 13.5424 16.0636 13.9364C17.4818 14.4485 18.4273 15.0492 18.9 15.7386C19.3727 16.428 19.6091 17.1864 19.6091 18.0136C19.6091 18.5848 19.5106 19.0871 19.3136 19.5205C19.1167 19.9538 18.8557 20.3231 18.5307 20.6284C18.2057 20.9337 17.8265 21.1799 17.3932 21.367C16.9598 21.5542 16.497 21.697 16.0045 21.7955V23.2727H13.9364ZM2 15C2 13.2076 2.33977 11.5235 3.01932 9.94773C3.69886 8.37197 4.62955 6.99318 5.81136 5.81136C6.99318 4.62955 8.37197 3.69886 9.94773 3.01932C11.5235 2.33977 13.2076 2 15 2C17.2061 2 19.2348 2.50227 21.0864 3.50682C22.9379 4.51136 24.4545 5.85076 25.6364 7.525V4.36364H28V11.4545H20.9091V9.09091H23.8341C22.8886 7.67273 21.6428 6.5303 20.0966 5.66364C18.5504 4.79697 16.8515 4.36364 15 4.36364C13.5227 4.36364 12.139 4.64432 10.8489 5.20568C9.55871 5.76705 8.43598 6.52538 7.48068 7.48068C6.52538 8.43598 5.76705 9.55871 5.20568 10.8489C4.64432 12.139 4.36364 13.5227 4.36364 15H2Z" fill="#3C77CF"/>
</svg>
