<svg width="30" height="30" viewBox="0 0 30 30" fill="none" xmlns="http://www.w3.org/2000/svg">
<path d="M16.2707 28V25.3869C17.183 25.2563 18.0681 25.0059 18.9261 24.6357C19.784 24.2655 20.5931 23.7973 21.3534 23.2312L23.2431 25.1256C22.2222 25.9313 21.1253 26.5791 19.9524 27.0691C18.7794 27.559 17.5522 27.8693 16.2707 28ZM25.0677 23.2312L23.2431 21.402C23.8079 20.6834 24.264 19.8941 24.6115 19.0339C24.9591 18.1738 25.198 17.2647 25.3283 16.3065H28C27.8262 17.6566 27.495 18.9142 27.0063 20.0791C26.5175 21.2441 25.8713 22.2948 25.0677 23.2312ZM25.3283 13.6935C25.198 12.7136 24.9591 11.7936 24.6115 10.9334C24.264 10.0733 23.8079 9.29481 23.2431 8.59799L25.0677 6.76884C25.8931 7.72697 26.561 8.79397 27.0714 9.96985C27.5819 11.1457 27.8914 12.3869 28 13.6935H25.3283ZM13.6642 28C10.3409 27.608 7.566 26.1817 5.3396 23.7211C3.1132 21.2605 2 18.3534 2 15C2 11.6248 3.1132 8.70687 5.3396 6.24623C7.566 3.78559 10.3409 2.37018 13.6642 2V4.61307C11.0576 4.98325 8.89641 6.14824 7.18045 8.10804C5.46449 10.0678 4.60652 12.3652 4.60652 15C4.60652 17.6348 5.46449 19.9267 7.18045 21.8756C8.89641 23.8245 11.0576 24.995 13.6642 25.3869V28ZM21.4185 6.76884C20.6366 6.1809 19.8112 5.70184 18.9424 5.33166C18.0735 4.96147 17.183 4.72194 16.2707 4.61307V2C17.5522 2.10888 18.7794 2.40829 19.9524 2.89824C21.1253 3.38819 22.2222 4.0469 23.2431 4.87437L21.4185 6.76884ZM15 21.5327C13.7402 20.4657 12.5564 19.3224 11.4486 18.103C10.3409 16.8836 9.78697 15.4573 9.78697 13.8241C9.78697 12.3434 10.292 11.0804 11.302 10.0352C12.312 8.98995 13.5447 8.46734 15 8.46734C16.4553 8.46734 17.688 8.98995 18.698 10.0352C19.708 11.0804 20.213 12.3434 20.213 13.8241C20.213 15.4573 19.6591 16.8836 18.5514 18.103C17.4436 19.3224 16.2598 20.4657 15 21.5327ZM15 15C15.391 15 15.7222 14.8639 15.9937 14.5917C16.2652 14.3195 16.401 13.9874 16.401 13.5955C16.401 13.2253 16.2652 12.8987 15.9937 12.6156C15.7222 12.3325 15.391 12.191 15 12.191C14.609 12.191 14.2778 12.3325 14.0063 12.6156C13.7348 12.8987 13.599 13.2253 13.599 13.5955C13.599 13.9874 13.7348 14.3195 14.0063 14.5917C14.2778 14.8639 14.609 15 15 15Z" fill="#3C77CF"/>
</svg>
