<svg width="30" height="30" viewBox="0 0 30 30" fill="none" xmlns="http://www.w3.org/2000/svg">
<path d="M4.5 28V2H15.8077C18.5 2 20.7885 2.84259 22.6731 4.52778C24.5577 6.21296 25.5 8.25926 25.5 10.6667C25.5 13.0741 24.5577 15.1204 22.6731 16.8056C20.7885 18.4907 18.5 19.3333 15.8077 19.3333H10.9615V28H4.5ZM10.9615 13.5556H16.1308C17.0192 13.5556 17.7798 13.2727 18.4125 12.7069C19.0452 12.1412 19.3615 11.4611 19.3615 10.6667C19.3615 9.87222 19.0452 9.19213 18.4125 8.62639C17.7798 8.06065 17.0192 7.77778 16.1308 7.77778H10.9615V13.5556Z" fill="#3C77CF"/>
</svg>
