<svg width="41" height="41" viewBox="0 0 41 41" fill="none" xmlns="http://www.w3.org/2000/svg">
<path fill-rule="evenodd" clip-rule="evenodd" d="M20.5003 3.41504C11.0874 3.41504 3.41699 11.0855 3.41699 20.4984C3.41699 25.4525 5.55241 29.9113 8.93491 33.0375C8.93491 33.0546 8.93491 33.0546 8.91783 33.0717C9.08866 33.2425 9.29366 33.3792 9.46449 33.533C9.56699 33.6184 9.65241 33.7038 9.75491 33.7721C10.0624 34.0284 10.4041 34.2675 10.7287 34.5067C10.8482 34.5921 10.9507 34.6605 11.0703 34.7459C11.3949 34.968 11.7366 35.173 12.0953 35.3609C12.2149 35.4292 12.3516 35.5146 12.4712 35.583C12.8128 35.7709 13.1716 35.9417 13.5474 36.0955C13.6841 36.1638 13.8207 36.2321 13.9574 36.2834C14.3332 36.4371 14.7091 36.5738 15.0849 36.6934C15.2216 36.7446 15.3582 36.7959 15.4949 36.83C15.9049 36.9496 16.3149 37.0521 16.7249 37.1546C16.8445 37.1888 16.9641 37.223 17.1007 37.24C17.5791 37.3425 18.0574 37.4109 18.5528 37.4621C18.6212 37.4621 18.6895 37.4792 18.7578 37.4963C19.3387 37.5475 19.9195 37.5817 20.5003 37.5817C21.0812 37.5817 21.662 37.5475 22.2257 37.4963C22.2941 37.4963 22.3624 37.4792 22.4307 37.4621C22.9262 37.4109 23.4045 37.3425 23.8828 37.24C24.0024 37.223 24.122 37.1717 24.2587 37.1546C24.6687 37.0521 25.0957 36.9667 25.4887 36.83C25.6253 36.7788 25.762 36.7275 25.8987 36.6934C26.2745 36.5567 26.6674 36.4371 27.0262 36.2834C27.1628 36.2321 27.2995 36.1638 27.4362 36.0955C27.7949 35.9417 28.1537 35.7709 28.5124 35.583C28.6491 35.5146 28.7687 35.4292 28.8882 35.3609C29.2299 35.1559 29.5716 34.968 29.9132 34.7459C30.0328 34.6775 30.1353 34.5921 30.2549 34.5067C30.5966 34.2675 30.9212 34.0284 31.2287 33.7721C31.3312 33.6867 31.4166 33.6013 31.5191 33.533C31.707 33.3792 31.8949 33.2255 32.0657 33.0717C32.0657 33.0546 32.0657 33.0546 32.0487 33.0375C35.4482 29.9113 37.5837 25.4525 37.5837 20.4984C37.5837 11.0855 29.9132 3.41504 20.5003 3.41504ZM12.0612 28.9888C11.3095 29.4842 10.6945 30.065 10.182 30.6971C7.58533 28.0663 5.97949 24.4617 5.97949 20.4984C5.97949 12.4863 12.4882 5.97754 20.5003 5.97754C28.5124 5.97754 35.0212 12.4863 35.0212 20.4984C35.0212 24.4617 33.4153 28.0663 30.8187 30.6971C30.3232 30.065 29.6912 29.4842 28.9395 28.9888C24.3099 25.8796 16.7249 25.8796 12.0612 28.9888Z" fill="#3C77CF"/>
<path d="M14.0938 18.2441C14.0938 21.7121 16.81 24.5308 20.4146 24.6333C20.4658 24.6333 20.5342 24.6333 20.5683 24.6333C20.6025 24.6333 20.6537 24.6333 20.6879 24.6333C20.705 24.6333 20.7221 24.6333 20.7221 24.6333C24.1729 24.5137 26.8892 21.7121 26.9062 18.2441C26.9062 14.7079 24.0363 11.8379 20.5 11.8379C16.9638 11.8379 14.0938 14.7079 14.0938 18.2441Z" fill="#3C77CF"/>
</svg>
