<svg width="130" height="130" viewBox="0 0 130 130" fill="none" xmlns="http://www.w3.org/2000/svg">
<path fill-rule="evenodd" clip-rule="evenodd" d="M65.5 1C29.9605 1 1 29.9605 1 65.5C1 84.205 9.0625 101.039 21.8335 112.843C21.8335 112.907 21.8335 112.908 21.769 112.972C22.414 113.617 23.188 114.133 23.833 114.713C24.22 115.036 24.5425 115.358 24.9295 115.616C26.0905 116.584 27.3805 117.487 28.606 118.39C29.0575 118.713 29.4445 118.97 29.896 119.293C31.1215 120.131 32.4115 120.906 33.766 121.615C34.2175 121.873 34.7335 122.195 35.185 122.453C36.475 123.163 37.8295 123.808 39.2485 124.388C39.7645 124.646 40.2805 124.904 40.7965 125.098C42.2155 125.678 43.6345 126.194 45.0535 126.646C45.5695 126.839 46.0855 127.033 46.6015 127.162C48.1495 127.613 49.6975 128 51.2455 128.387C51.697 128.516 52.1485 128.645 52.6645 128.71C54.4705 129.097 56.2765 129.355 58.147 129.548C58.405 129.548 58.663 129.613 58.921 129.678C61.114 129.871 63.307 130 65.5 130C67.693 130 69.886 129.871 72.0145 129.678C72.2725 129.678 72.5305 129.613 72.7885 129.548C74.659 129.355 76.465 129.097 78.271 128.71C78.7225 128.645 79.174 128.452 79.69 128.387C81.238 128 82.8505 127.678 84.334 127.162C84.85 126.968 85.366 126.775 85.882 126.646C87.301 126.13 88.7845 125.678 90.139 125.098C90.655 124.904 91.171 124.646 91.687 124.388C93.0415 123.808 94.396 123.163 95.7505 122.453C96.2665 122.195 96.718 121.873 97.1695 121.615C98.4595 120.841 99.7495 120.131 101.039 119.293C101.491 119.035 101.878 118.713 102.329 118.39C103.619 117.487 104.845 116.584 106.006 115.616C106.393 115.294 106.716 114.971 107.103 114.713C107.812 114.133 108.521 113.553 109.166 112.972C109.166 112.908 109.166 112.907 109.102 112.843C121.937 101.039 130 84.205 130 65.5C130 29.9605 101.039 1 65.5 1ZM33.637 97.5565C30.799 99.427 28.477 101.62 26.542 104.006C16.738 94.0735 10.675 80.464 10.675 65.5C10.675 35.2495 35.2495 10.675 65.5 10.675C95.7505 10.675 120.325 35.2495 120.325 65.5C120.325 80.464 114.262 94.0735 104.458 104.006C102.588 101.62 100.201 99.427 97.363 97.5565C79.8835 85.8175 51.2455 85.8175 33.637 97.5565Z" fill="#3C77CF"/>
<path d="M41 56.032C41 69.0414 51.176 79.6155 64.68 80C64.872 80 65.128 80 65.256 80C65.384 80 65.576 80 65.704 80C65.768 80 65.832 80 65.832 80C78.76 79.5514 88.936 69.0414 89 56.032C89 42.7664 78.248 32 65 32C51.752 32 41 42.7664 41 56.032Z" fill="#3C77CF"/>
</svg>
