<svg width="26" height="26" viewBox="0 0 26 26" fill="none" xmlns="http://www.w3.org/2000/svg">
<path d="M10.2024 4.57831C11.3879 1.5261 11.9807 0 13 0C14.0193 0 14.6121 1.5261 15.7976 4.57831L15.8528 4.72044C16.5226 6.44478 16.8575 7.30695 17.54 7.83099C18.2225 8.35504 19.1184 8.4379 20.9103 8.60363L21.2342 8.63359C24.1668 8.90482 25.6332 9.04044 25.9469 10.0039C26.2607 10.9673 25.1717 11.9904 22.9938 14.0366L22.267 14.7196C21.1645 15.7554 20.6132 16.2734 20.3563 16.9522C20.3084 17.0788 20.2685 17.2085 20.237 17.3405C20.0682 18.0482 20.2296 18.7995 20.5524 20.3022L20.6529 20.77C21.2462 23.5317 21.5429 24.9125 21.0249 25.5081C20.8314 25.7307 20.5798 25.8909 20.3004 25.9697C19.5525 26.1804 18.4908 25.2869 16.3673 23.5C14.9729 22.3266 14.2757 21.7399 13.4753 21.6079C13.1604 21.556 12.8396 21.556 12.5247 21.6079C11.7243 21.7399 11.0271 22.3266 9.63273 23.5C7.50923 25.2869 6.44749 26.1804 5.69964 25.9697C5.42019 25.8909 5.16863 25.7307 4.97508 25.5081C4.4571 24.9125 4.75377 23.5317 5.34709 20.77L5.44758 20.3022C5.77042 18.7995 5.93185 18.0482 5.76296 17.3405C5.73146 17.2085 5.69162 17.0788 5.64369 16.9522C5.38676 16.2734 4.83552 15.7554 3.73303 14.7196L3.00616 14.0366C0.828273 11.9904 -0.260672 10.9673 0.0530828 10.0039C0.366838 9.04044 1.83315 8.90482 4.76577 8.63359L5.08971 8.60363C6.88158 8.4379 7.77752 8.35504 8.46003 7.83099C9.14254 7.30695 9.47742 6.44478 10.1472 4.72043L10.2024 4.57831Z" fill="#FFD52F"/>
</svg>
