<svg width="28" height="28" viewBox="0 0 28 28" fill="none" xmlns="http://www.w3.org/2000/svg">
<path fill-rule="evenodd" clip-rule="evenodd" d="M16.6491 0.784459C16.7635 1.01625 16.7915 1.31105 16.8477 1.90065C16.9545 3.02262 17.008 3.58361 17.2339 3.89456C17.5448 4.3226 18.0697 4.53998 18.5922 4.45721C18.9718 4.39708 19.4063 4.03819 20.2752 3.3204L20.2752 3.32038L20.4072 3.21135C20.9241 2.78433 21.1826 2.57081 21.4645 2.48992C21.7619 2.40457 22.0791 2.41964 22.3671 2.53281C22.6401 2.64006 22.8771 2.87711 23.3512 3.35123L24.2197 4.21974C24.7755 4.77554 25.0534 5.05344 25.1569 5.38266C25.2295 5.6138 25.2411 5.85978 25.1908 6.09676C25.1191 6.4343 24.8667 6.73977 24.362 7.3507C23.4158 8.49611 22.9427 9.06882 22.9446 9.57769C22.9459 9.94727 23.0926 10.3015 23.353 10.5638C23.7115 10.9249 24.4445 10.9947 25.9103 11.1343C26.6794 11.2076 27.0639 11.2442 27.3497 11.4265C27.5605 11.561 27.7317 11.7492 27.8456 11.9719C28 12.2737 28 12.6599 28 13.4324V14.557C28 15.3396 28 15.7309 27.8417 16.0358C27.7291 16.2525 27.5621 16.4363 27.3569 16.5689C27.0684 16.7554 26.6789 16.7925 25.8998 16.8667L25.7294 16.8829C24.3944 17.0101 23.7269 17.0736 23.3828 17.3804C23.0624 17.6661 22.8899 18.0825 22.9145 18.5111C22.9408 18.9712 23.3679 19.4882 24.222 20.5221C24.6704 21.0649 24.8946 21.3363 24.9736 21.6342C25.0478 21.9144 25.0337 22.2106 24.9333 22.4825C24.8264 22.7716 24.5775 23.0205 24.0796 23.5184L23.0893 24.5087C22.6729 24.9251 22.4647 25.1333 22.2305 25.239C21.9047 25.3861 21.5351 25.4037 21.1968 25.2881C20.9536 25.2051 20.7266 25.0175 20.2726 24.6425C19.4087 23.9288 18.9767 23.572 18.5995 23.5111C18.0742 23.4262 17.5459 23.645 17.2345 24.0765C17.0108 24.3863 16.9571 24.9506 16.8496 26.0792V26.0792C16.7919 26.6852 16.763 26.9882 16.6453 27.2232C16.4887 27.5358 16.2214 27.7788 15.8954 27.9051C15.6503 28 15.3491 28 14.7468 28H13.443C12.6604 28 12.2691 28 11.9642 27.8417C11.7475 27.7291 11.5637 27.5621 11.4311 27.3569C11.2446 27.0684 11.2075 26.6789 11.1333 25.8998L11.1171 25.7294C10.9899 24.3944 10.9264 23.7269 10.6196 23.3828C10.3339 23.0624 9.91755 22.8899 9.48892 22.9145C9.02876 22.9408 8.51181 23.3679 7.4779 24.222C6.93511 24.6704 6.66371 24.8946 6.36575 24.9736C6.08561 25.0478 5.78937 25.0337 5.51753 24.9333C5.22841 24.8264 4.97949 24.5775 4.48165 24.0796L3.49134 23.0893C3.07493 22.6729 2.86672 22.4647 2.76098 22.2305C2.61388 21.9047 2.59632 21.5351 2.71187 21.1968C2.79493 20.9536 2.98245 20.7266 3.3575 20.2726L3.35751 20.2726C4.07119 19.4087 4.42803 18.9767 4.48895 18.5995C4.57379 18.0742 4.35498 17.5459 3.92352 17.2345C3.61374 17.0108 3.04942 16.9571 1.92077 16.8496H1.92075C1.3148 16.7919 1.01182 16.763 0.776762 16.6453C0.46423 16.4887 0.221173 16.2214 0.0949412 15.8954C0 15.6503 0 15.3491 0 14.7468V13.2426C0 12.6503 0 12.3542 0.0918614 12.1126C0.218208 11.7803 0.465656 11.5082 0.784459 11.3509C1.01625 11.2365 1.31105 11.2085 1.90065 11.1523C3.02262 11.0455 3.58361 10.992 3.89455 10.7661C4.32259 10.4551 4.53998 9.93033 4.45721 9.40776C4.39708 9.02815 4.03818 8.59369 3.32038 7.72478L3.21135 7.5928C2.78433 7.07587 2.57081 6.8174 2.48992 6.53553C2.40457 6.23812 2.41964 5.92086 2.53281 5.63288C2.64006 5.35994 2.87711 5.12289 3.35123 4.64877L4.21974 3.78026C4.77554 3.22446 5.05345 2.94655 5.38266 2.84314C5.6138 2.77054 5.85978 2.75885 6.09676 2.80921C6.4343 2.88095 6.73977 3.13329 7.3507 3.63797C8.49611 4.58419 9.06882 5.05729 9.57769 5.05543C9.94727 5.05409 10.3015 4.90737 10.5638 4.64699C10.9249 4.28848 10.9947 3.55554 11.1343 2.08965C11.2076 1.3206 11.2442 0.936081 11.4265 0.650287C11.561 0.439459 11.7492 0.268285 11.9719 0.154392C12.2737 0 12.6599 0 13.4324 0H14.7574C15.3497 0 15.6458 0 15.8874 0.0918615C16.2197 0.218208 16.4918 0.465656 16.6491 0.784459ZM13.5 19C16.5376 19 19 16.5376 19 13.5C19 10.4624 16.5376 8 13.5 8C10.4624 8 8 10.4624 8 13.5C8 16.5376 10.4624 19 13.5 19Z" fill="#222222"/>
</svg>
