<svg width="195" height="81" viewBox="0 0 195 81" fill="none" xmlns="http://www.w3.org/2000/svg">
<path d="M43.8068 22.6364V59H35.5682L22.429 39.8949H22.2159V59H12.3438V22.6364H20.7244L33.6506 41.6705H33.9347V22.6364H43.8068ZM57.9226 59H47.2692L59.272 22.6364H72.7663L84.7692 59H74.1158L66.1612 32.6506H65.8771L57.9226 59ZM55.9339 44.6534H75.9624V52.0398H55.9339V44.6534ZM92.9412 22.6364L100.399 48.2756H100.683L108.14 22.6364H119.291L107.288 59H93.7935L81.7907 22.6364H92.9412ZM122.793 59V22.6364H149V30.5909H132.665V36.8409H147.651V44.7955H132.665V51.0455H148.929V59H122.793ZM153.896 59V22.6364H169.593C172.291 22.6364 174.653 23.1276 176.677 24.1101C178.701 25.0926 180.276 26.5071 181.4 28.3537C182.525 30.2003 183.087 32.4138 183.087 34.9943C183.087 37.5985 182.507 39.7943 181.347 41.5817C180.199 43.3691 178.583 44.7185 176.499 45.63C174.428 46.5414 172.007 46.9972 169.237 46.9972H159.862V39.3267H167.249C168.409 39.3267 169.397 39.1847 170.214 38.9006C171.043 38.6046 171.676 38.1371 172.114 37.4979C172.564 36.8587 172.789 36.0241 172.789 34.9943C172.789 33.9527 172.564 33.1063 172.114 32.4553C171.676 31.7924 171.043 31.3071 170.214 30.9993C169.397 30.6797 168.409 30.5199 167.249 30.5199H163.769V59H153.896ZM175.203 42.3097L184.294 59H173.57L164.692 42.3097H175.203Z" fill="#03C75A"/>
</svg>
