<svg width="24" height="24" viewBox="0 0 24 24" fill="none" xmlns="http://www.w3.org/2000/svg">
<g clip-path="url(#clip0_349_2772)">
<path d="M15.947 3.06581C15.974 2.71981 16.299 2.50881 16.578 2.65581L16.884 2.81981L17.244 3.02281L17.442 3.13981L17.872 3.40281L18.101 3.54981L18.564 3.85981L18.774 4.00681L19.151 4.27981L19.466 4.51981L19.599 4.62381C19.835 4.81181 19.824 5.18981 19.576 5.38581L19.296 5.60281L18.956 5.85481L18.556 6.13681L18.1 6.44181L17.638 6.73281L17.222 6.98181L16.857 7.18681L16.55 7.35181C16.275 7.49481 15.978 7.31581 15.952 6.99181L15.927 6.64481L15.903 6.22981L15.893 5.99981H7C6.49542 5.99965 6.00943 6.19022 5.63945 6.53331C5.26947 6.8764 5.04284 7.34666 5.005 7.84981L5 7.99981V15.9998C4.99984 16.5044 5.19041 16.9904 5.5335 17.3604C5.87659 17.7303 6.34684 17.957 6.85 17.9948L7 17.9998H17C17.5046 18 17.9906 17.8094 18.3605 17.4663C18.7305 17.1232 18.9572 16.653 18.995 16.1498L19 15.9998V10.9998C19.0003 10.7449 19.0979 10.4998 19.2728 10.3144C19.4478 10.1291 19.687 10.0176 19.9414 10.0026C20.1958 9.9877 20.4464 10.0705 20.6418 10.2341C20.8373 10.3977 20.9629 10.6297 20.993 10.8828L21 10.9998V15.9998C21 17.0261 20.6056 18.013 19.8983 18.7566C19.191 19.5002 18.225 19.9435 17.2 19.9948L17 19.9998H7C5.97376 19.9998 4.98677 19.6054 4.24319 18.8981C3.4996 18.1908 3.05631 17.2248 3.005 16.1998L3 15.9998V7.99981C3 6.97357 3.39444 5.98658 4.10172 5.243C4.80901 4.49942 5.77504 4.05612 6.8 4.00481L7 3.99981H15.893L15.913 3.58481L15.935 3.22481L15.947 3.06581ZM13 10.0188V14.9998C13 15.265 12.8946 15.5194 12.7071 15.7069C12.5196 15.8945 12.2652 15.9998 12 15.9998C11.7348 15.9998 11.4804 15.8945 11.2929 15.7069C11.1054 15.5194 11 15.265 11 14.9998V11.8658C10.7751 11.9961 10.5084 12.0338 10.2562 11.9708C10.0041 11.9078 9.78634 11.7491 9.64918 11.5284C9.51202 11.3076 9.46619 11.0421 9.52141 10.7881C9.57663 10.5342 9.72856 10.3117 9.945 10.1678L11.43 9.17781C11.5821 9.07649 11.7588 9.01833 11.9413 9.00952C12.1238 9.00071 12.3053 9.04159 12.4665 9.1278C12.6276 9.21401 12.7623 9.34231 12.8563 9.49905C12.9502 9.65578 12.9999 9.83507 13 10.0178V10.0188Z" fill="#C6C6C6"/>
</g>
<defs>
<clipPath id="clip0_349_2772">
<rect width="24" height="24" fill="white"/>
</clipPath>
</defs>
</svg>
