<svg width="95" height="95" viewBox="0 0 95 95" fill="none" xmlns="http://www.w3.org/2000/svg">
<rect width="95" height="95" rx="9.89583" transform="matrix(1 0 0 -1 0 95)" fill="white"/>
<path d="M39.5835 9.89583H37.6043V11.875C37.6043 11.9109 37.6043 11.9468 37.6043 11.9827C37.6042 12.822 37.604 13.6377 37.6944 14.3104C37.7964 15.0688 38.0448 15.9343 38.7637 16.6531C39.4826 17.372 40.348 17.6204 41.1064 17.7224C41.7792 17.8128 42.5948 17.8127 43.4341 17.8125C43.47 17.8125 43.5059 17.8125 43.5418 17.8125H51.4585C51.4944 17.8125 51.5303 17.8125 51.5662 17.8125C52.4055 17.8127 53.2212 17.8128 53.8939 17.7224C54.6523 17.6204 55.5178 17.372 56.2366 16.6531C56.9555 15.9343 57.2039 15.0688 57.3059 14.3104C57.3963 13.6377 57.3962 12.822 57.396 11.9827C57.396 11.9468 57.396 11.9109 57.396 11.875V9.89583H55.4168H39.5835Z" stroke="black" stroke-width="3.95833"/>
<rect x="25.7292" y="9.89616" width="43.5417" height="75.2083" rx="5.9375" stroke="black" stroke-width="3.95833"/>
<circle cx="47.4998" cy="71.2503" r="3.95833" fill="black"/>
</svg>
