<svg width="24" height="24" viewBox="0 0 24 24" fill="none" xmlns="http://www.w3.org/2000/svg">
<rect width="24" height="24" fill="white"/>
<path d="M12.3799 3.87988V10.8799H19.3799V3.87988H12.3799ZM17.8799 9.37988H13.8799V5.37988H17.8799V9.37988ZM3.87988 10.8799H10.8799V3.87988H3.87988V10.8799ZM5.37988 5.37988H9.37988V9.37988H5.37988V5.37988ZM3.87988 19.3799H10.8799V12.3799H3.87988V19.3799ZM5.37988 13.8799H9.37988V17.8799H5.37988V13.8799ZM12.3799 12.3799H14.1299V14.1299H12.3799V12.3799ZM15.8799 12.3799H17.6299V14.1299H15.8799V12.3799ZM14.1299 14.1299H15.8799V15.8799H14.1299V14.1299ZM17.6299 14.1299H19.3799V15.8799H17.6299V14.1299ZM12.3799 15.8799H14.1299V17.6299H12.3799V15.8799ZM15.8799 15.8799H17.6299V17.6299H15.8799V15.8799ZM14.1299 17.6299H15.8799V19.3799H14.1299V17.6299ZM17.6299 17.6299H19.3799V19.3799H17.6299V17.6299Z" fill="#C6C6C6"/>
</svg>
