<svg width="131" height="129" viewBox="0 0 131 129" fill="none" xmlns="http://www.w3.org/2000/svg">
<rect x="1.92" y="1.92" width="126.16" height="125.16" rx="28.08" fill="#223E94" stroke="white" stroke-width="3.84"/>
<path d="M37.3644 95.6018C37.3577 96.555 37.521 97.5115 37.8543 98.4713C38.1943 99.4312 38.7009 100.311 39.3741 101.111C40.0473 101.904 40.8639 102.521 41.8237 102.961L40.4039 104.96C39.4174 104.507 38.5609 103.85 37.8343 102.991C37.1078 102.124 36.5345 101.124 36.1146 99.9911C35.6947 101.238 35.1081 102.334 34.3549 103.281C33.6083 104.227 32.7251 104.94 31.7053 105.42L30.2255 103.401C31.1987 102.947 32.0286 102.304 32.7151 101.471C33.4017 100.631 33.9183 99.7011 34.2649 98.6813C34.6182 97.6615 34.7981 96.635 34.8048 95.6018V94.482H30.9454V92.4023H41.0238V94.482H37.3644V95.6018ZM45.0032 97.5815H47.6828V99.7211H45.0032V108.84H42.4436V90.6426H45.0032V97.5815ZM64.9801 101.241H48.3427V99.2412H55.4216V97.6815H50.3624V91.4424H62.9804V93.4221H52.902V95.6818H63.0804V97.6815H57.9212V99.2412H64.9801V101.241ZM56.6214 102.161C57.9345 102.161 59.0643 102.291 60.0109 102.551C60.9574 102.811 61.6839 103.194 62.1905 103.701C62.6971 104.2 62.9537 104.807 62.9604 105.52C62.9537 106.22 62.6971 106.82 62.1905 107.32C61.6839 107.82 60.954 108.2 60.0009 108.46C59.0543 108.726 57.9278 108.86 56.6214 108.86C55.3016 108.86 54.1618 108.726 53.2019 108.46C52.2487 108.2 51.5155 107.82 51.0023 107.32C50.4957 106.82 50.2424 106.22 50.2424 105.52C50.2424 104.807 50.4957 104.2 51.0023 103.701C51.5089 103.194 52.2387 102.811 53.1919 102.551C54.1518 102.291 55.2949 102.161 56.6214 102.161ZM56.6214 104.1C55.3616 104.1 54.4151 104.22 53.7818 104.46C53.1486 104.7 52.8353 105.054 52.842 105.52C52.8353 105.993 53.1453 106.347 53.7718 106.58C54.3984 106.807 55.3483 106.92 56.6214 106.92C57.8679 106.92 58.8077 106.807 59.4409 106.58C60.0742 106.347 60.3941 105.993 60.4008 105.52C60.3941 105.054 60.0708 104.7 59.4309 104.46C58.791 104.22 57.8545 104.1 56.6214 104.1ZM81.3775 99.8011H78.8379V98.4013H74.6786V96.4616H78.8379V94.8619H74.8685C74.3153 96.2217 73.3921 97.3448 72.099 98.2314C70.8058 99.1179 69.1461 99.7811 67.1197 100.221L66.2599 98.1414C68.2796 97.7414 69.8127 97.1382 70.8592 96.3317C71.9057 95.5185 72.5156 94.5419 72.6889 93.4021H67.2797V91.3424H75.5184C75.5184 91.8957 75.4784 92.4223 75.3985 92.9222H78.8379V90.6426H81.3775V99.8011ZM81.3775 105.44H71.859V106.64H81.7775V108.66H69.2994V103.561H78.8179V102.461H69.2794V100.461H81.3775V105.44ZM99.4747 108.84H97.0551V90.6426H99.4747V108.84ZM95.7553 108H93.3556V98.9413H90.956V96.8816H93.3556V90.9425H95.7553V108ZM89.4963 95.5218C89.4963 97.1749 89.7829 98.678 90.3561 100.031C90.936 101.378 91.8492 102.407 93.0957 103.121L91.5959 105C90.8094 104.534 90.1395 103.914 89.5862 103.141C89.0397 102.367 88.6097 101.474 88.2964 100.461C87.9698 101.568 87.5232 102.544 86.9566 103.391C86.3901 104.237 85.7035 104.907 84.897 105.4L83.3572 103.521C84.2104 103.001 84.9103 102.317 85.4569 101.471C86.0101 100.618 86.4101 99.6845 86.6567 98.6713C86.91 97.6581 87.0366 96.6083 87.0366 95.5218V94.5419H84.0571V92.5023H92.2558V94.5419H89.4963V95.5218Z" fill="white"/>
<mask id="mask0_614_3793" style="mask-type:alpha" maskUnits="userSpaceOnUse" x="32" y="7" width="67" height="67">
<rect x="32" y="7" width="67" height="67" fill="#D9D9D9"/>
</mask>
<g mask="url(#mask0_614_3793)">
<path d="M87.6583 64.7083L89.625 62.7639L84.3571 57.5556V49.7778H81.5476V58.6667L87.6583 64.7083ZM83.0226 72C79.0893 72 75.753 70.6574 73.0137 67.9722C70.2744 65.287 68.9048 62 68.9048 58.1111C68.9048 54.2222 70.2744 50.9352 73.0137 48.25C75.753 45.5648 79.0893 44.2222 83.0226 44.2222C86.9091 44.2222 90.2103 45.5764 92.9262 48.2847C95.6421 50.9931 97 54.2685 97 58.1111C97 61.9537 95.6421 65.2292 92.9262 67.9375C90.2103 70.6458 86.9091 72 83.0226 72ZM43.619 66.4444C42.0738 66.4444 40.751 65.9005 39.6506 64.8125C38.5502 63.7245 38 62.4167 38 60.8889V27.5556C38 26.0278 38.5502 24.7199 39.6506 23.6319C40.751 22.544 42.0738 22 43.619 22H88.5714C90.1167 22 91.4395 22.544 92.5399 23.6319C93.6403 24.7199 94.1905 26.0278 94.1905 27.5556V42.3472C93.3476 41.7454 92.4579 41.213 91.5214 40.75C90.5849 40.287 89.6016 39.8935 88.5714 39.5694V33.1111H43.619V44.2222H68.9048C67.0786 45.9815 65.6387 48.0532 64.5851 50.4375C63.5315 52.8218 63.0048 55.3796 63.0048 58.1111C63.0048 59.5926 63.1686 61.0393 63.4964 62.4514C63.8242 63.8634 64.2925 65.1944 64.9012 66.4444H43.619Z" fill="white"/>
</g>
</svg>
