<svg width="131" height="129" viewBox="0 0 131 129" fill="none" xmlns="http://www.w3.org/2000/svg">
<rect x="1.92" y="1.92" width="126.16" height="125.16" rx="28.08" fill="#223E94" stroke="white" stroke-width="3.84"/>
<path d="M34.7748 101.441H32.2352V97.1415H29.3956V95.0819H32.2352V90.6426H34.7748V101.441ZM28.5558 101.841C29.8489 101.847 30.9621 101.991 31.8953 102.271C32.8351 102.544 33.5583 102.944 34.0649 103.471C34.5715 103.997 34.8281 104.627 34.8348 105.36C34.8281 106.087 34.5715 106.713 34.0649 107.24C33.5583 107.767 32.8351 108.166 31.8953 108.44C30.9554 108.72 29.8422 108.86 28.5558 108.86C27.2693 108.86 26.1562 108.72 25.2163 108.44C24.2764 108.166 23.5532 107.767 23.0466 107.24C22.5467 106.713 22.2968 106.087 22.2968 105.36C22.2968 104.627 22.5467 103.997 23.0466 103.471C23.5532 102.944 24.2731 102.544 25.2063 102.271C26.1462 101.991 27.2626 101.847 28.5558 101.841ZM28.5558 103.801C26.0762 103.801 24.8364 104.32 24.8364 105.36C24.8364 105.88 25.1496 106.27 25.7762 106.53C26.4094 106.79 27.336 106.92 28.5558 106.92C29.7756 106.92 30.7021 106.79 31.3353 106.53C31.9752 106.263 32.2952 105.874 32.2952 105.36C32.2952 104.32 31.0487 103.801 28.5558 103.801ZM29.9356 93.7821H26.3161C26.3361 94.5153 26.4994 95.2218 26.806 95.9017C27.1193 96.575 27.5826 97.1815 28.1958 97.7215C28.8157 98.2614 29.5823 98.6813 30.4955 98.9813L29.2357 100.981C28.2625 100.668 27.4226 100.201 26.7161 99.5812C26.0162 98.9546 25.4629 98.218 25.0563 97.3715C24.6364 98.3314 24.0565 99.1646 23.3166 99.8711C22.5767 100.571 21.6835 101.101 20.637 101.461L19.3172 99.4412C20.2771 99.1212 21.0803 98.668 21.7268 98.0814C22.3801 97.4882 22.8667 96.8216 23.1866 96.0817C23.5132 95.3418 23.6899 94.5753 23.7165 93.7821H20.0571V91.7424H29.9356V93.7821ZM52.432 108.84H49.8524V90.6426H52.432V108.84ZM46.9729 92.5423C46.9729 94.4886 46.7096 96.2583 46.183 97.8514C45.6631 99.4445 44.7832 100.908 43.5434 102.241C42.3036 103.567 40.6339 104.727 38.5342 105.72L37.1944 103.681C38.7475 102.947 40.0273 102.131 41.0338 101.231C42.047 100.331 42.8202 99.3345 43.3535 98.2414C43.8934 97.1415 44.2333 95.9084 44.3733 94.5419H38.1743V92.5423H46.9729ZM70.3892 104.36H67.8096V102.341H64.2502V100.341H67.8096V90.6626H70.3892V104.36ZM70.8092 108.52H57.2313V102.961H59.5709V99.4612C58.3245 99.5145 56.8114 99.5478 55.0316 99.5612L54.7117 97.5415C57.7112 97.5281 60.2075 97.4615 62.2005 97.3415C62.3938 96.0017 62.5105 94.7419 62.5505 93.5621H56.3714V91.5424H65.1101V92.2223C65.1101 92.9689 65.0867 93.7254 65.0401 94.492C65.0001 95.2518 64.9034 96.135 64.7501 97.1415C65.5367 97.0616 66.1232 96.9949 66.5098 96.9416L66.6698 98.7413C65.2834 98.9879 63.7569 99.1779 62.0905 99.3112V103.221H59.7909V106.48H70.8092V108.52ZM87.4466 93.1022C87.4466 94.0354 87.4232 94.9119 87.3766 95.7318C87.3299 96.545 87.2133 97.4482 87.0266 98.4413L84.527 98.2014C84.7803 96.8083 84.9203 95.4218 84.947 94.042H78.088V91.9624H87.4466V93.1022ZM82.9273 99.6511C84.9936 99.5578 86.7867 99.4012 88.3064 99.1812L88.4464 101.021C86.7733 101.328 85.0303 101.531 83.2172 101.631C81.4042 101.731 79.4078 101.787 77.2282 101.801L77.0082 99.7611C78.4546 99.7611 79.5811 99.7511 80.3877 99.7311V96.1617H82.9273V99.6511ZM91.9059 96.1817H94.1055V98.3214H91.9059V104.26H89.2863V90.6426H91.9059V96.1817ZM92.4658 108.52H79.6878V103.041H82.2474V106.48H92.4658V108.52ZM110.203 108.88H107.663V90.6426H110.203V108.88ZM104.564 99.1812H98.5648V102.521C99.9913 102.514 101.321 102.464 102.554 102.371C103.794 102.277 105.064 102.127 106.364 101.921L106.584 103.98C105.17 104.227 103.764 104.397 102.364 104.49C100.964 104.577 99.3647 104.62 97.565 104.62H95.9252V97.1615H101.964V94.222H95.9052V92.1623H104.564V99.1812Z" fill="white"/>
<path d="M38 73C37.15 73 36.4375 72.7185 35.8625 72.1555C35.2875 71.5924 35 70.8948 35 70.0625V46.5625L41.3 28.9375C41.6 28.0562 42.1375 27.3464 42.9125 26.8078C43.6875 26.2693 44.55 26 45.5 26H78.5C79.45 26 80.3125 26.2693 81.0875 26.8078C81.8625 27.3464 82.4 28.0562 82.7 28.9375L89 46.5625V70.0625C89 70.8948 88.7125 71.5924 88.1375 72.1555C87.5625 72.7185 86.85 73 86 73H83C82.15 73 81.4375 72.7185 80.8625 72.1555C80.2875 71.5924 80 70.8948 80 70.0625V67.125H44V70.0625C44 70.8948 43.7125 71.5924 43.1375 72.1555C42.5625 72.7185 41.85 73 41 73H38ZM43.4 40.6875H80.6L77.45 31.875H46.55L43.4 40.6875ZM48.5 58.3125C49.75 58.3125 50.8125 57.8841 51.6875 57.0273C52.5625 56.1706 53 55.1302 53 53.9062C53 52.6823 52.5625 51.6419 51.6875 50.7852C50.8125 49.9284 49.75 49.5 48.5 49.5C47.25 49.5 46.1875 49.9284 45.3125 50.7852C44.4375 51.6419 44 52.6823 44 53.9062C44 55.1302 44.4375 56.1706 45.3125 57.0273C46.1875 57.8841 47.25 58.3125 48.5 58.3125ZM75.5 58.3125C76.75 58.3125 77.8125 57.8841 78.6875 57.0273C79.5625 56.1706 80 55.1302 80 53.9062C80 52.6823 79.5625 51.6419 78.6875 50.7852C77.8125 49.9284 76.75 49.5 75.5 49.5C74.25 49.5 73.1875 49.9284 72.3125 50.7852C71.4375 51.6419 71 52.6823 71 53.9062C71 55.1302 71.4375 56.1706 72.3125 57.0273C73.1875 57.8841 74.25 58.3125 75.5 58.3125Z" fill="white"/>
<path d="M70.0303 41.9697C70.9682 42.9076 72.1683 43.4099 73.5 43.4099H93.5C94.8317 43.4099 96.0318 42.9076 96.9697 41.9697C97.9076 41.0318 98.4099 39.8317 98.4099 38.5V23.5C98.4099 22.1683 97.9076 20.9682 96.9697 20.0303C96.0318 19.0924 94.8317 18.5901 93.5 18.5901H73.5C72.1683 18.5901 70.9682 19.0924 70.0303 20.0303C69.0924 20.9682 68.5901 22.1683 68.5901 23.5V38.5C68.5901 39.8317 69.0924 41.0318 70.0303 41.9697ZM91.0901 28.4099V28.5901H75.9099V28.4099H91.0901Z" fill="white" stroke="#223E94" stroke-width="4.81981"/>
</svg>
