<svg width="130" height="129" viewBox="0 0 130 129" fill="none" xmlns="http://www.w3.org/2000/svg">
<rect x="1.92" y="1.92" width="126.16" height="125.16" rx="28.08" fill="#223E94" stroke="white" stroke-width="3.84"/>
<path d="M37.2043 95.6018C37.2043 96.6083 37.3743 97.5981 37.7143 98.5713C38.0609 99.5378 38.5775 100.408 39.264 101.181C39.9506 101.954 40.7838 102.547 41.7636 102.961L40.3838 104.96C39.3373 104.52 38.4408 103.874 37.6943 103.021C36.9477 102.167 36.3611 101.171 35.9345 100.031C35.5146 101.271 34.9247 102.361 34.1648 103.301C33.4049 104.234 32.5051 104.94 31.4652 105.42L30.0055 103.401C30.9787 102.967 31.8085 102.337 32.4951 101.511C33.1883 100.684 33.7082 99.7578 34.0548 98.7313C34.4081 97.6981 34.5848 96.655 34.5848 95.6018V94.482H30.7254V92.4023H41.0038V94.482H37.2043V95.6018ZM45.3831 108.84H42.8035V90.6426H45.3831V108.84ZM62.6804 100.801H57.4012V104.68H64.5001V106.76H47.8427V104.68H54.8616V100.801H49.8024V91.9224H62.5404V93.962H52.362V98.7813H62.6804V100.801ZM74.9784 91.7024C74.9784 93.2755 74.6552 94.6919 74.0086 95.9517C73.362 97.2049 72.4155 98.278 71.169 99.1712C69.9292 100.058 68.4195 100.748 66.6397 101.241L65.6399 99.2612C67.5729 98.7346 69.1027 97.9947 70.2292 97.0416C71.3557 96.0884 72.0289 94.9885 72.2489 93.7421H66.6197V91.7024H74.9784ZM80.8775 100.841H78.3379V97.0616H75.0984V94.9819H78.3379V90.6626H80.8775V100.841ZM80.8775 108.62H68.8194V101.561H80.8775V108.62ZM71.319 106.62H78.3579V103.561H71.319V106.62ZM89.0562 93.8021C89.0562 94.8819 89.3362 95.8651 89.8961 96.7516C90.4627 97.6315 91.3226 98.3014 92.4757 98.7613L91.0959 100.721C90.3494 100.421 89.7028 100.004 89.1562 99.4712C88.6163 98.9379 88.1797 98.318 87.8464 97.6115C87.4998 98.4313 87.0332 99.1512 86.4466 99.7711C85.8601 100.384 85.1569 100.861 84.337 101.201L82.9772 99.2212C83.7971 98.8679 84.4736 98.4013 85.0069 97.8214C85.5468 97.2415 85.9434 96.6083 86.1967 95.9217C86.45 95.2285 86.5766 94.522 86.5766 93.8021V91.7024H89.0562V93.8021ZM98.8747 101.681H96.4551V97.1615H94.9353V101.581H92.5557V90.9425H94.9353V95.0819H96.4551V90.6626H98.8747V101.681ZM98.8747 108.84H96.3351V104.52H86.2967V102.481H98.8747V108.84Z" fill="white"/>
<path d="M69.6667 71L52.3333 65.05L38.9 70.15C37.937 70.5278 37.0463 70.4215 36.2278 69.8312C35.4093 69.241 35 68.45 35 67.4583V27.7917C35 27.1778 35.1806 26.6347 35.5417 26.1625C35.9028 25.6903 36.3963 25.3361 37.0222 25.1L52.3333 20L69.6667 25.95L83.1 20.85C84.063 20.4722 84.9537 20.5785 85.7722 21.1687C86.5907 21.759 87 22.55 87 23.5417V63.2083C87 63.8222 86.8194 64.3653 86.4583 64.8375C86.0972 65.3097 85.6037 65.6639 84.9778 65.9L69.6667 71ZM66.7778 64.0583V30.9083L55.2222 26.9417V60.0917L66.7778 64.0583ZM72.5556 64.0583L81.2222 61.225V27.65L72.5556 30.9083V64.0583ZM40.7778 63.35L49.4444 60.0917V26.9417L40.7778 29.775V63.35Z" fill="white"/>
<path d="M91.5619 76.0691L92.6667 77.2107L93.7714 76.0691L96.1047 73.658L97.1394 72.5889L96.1047 71.5198L86.4736 61.5676C86.8983 60.8564 87.2515 60.0902 87.5356 59.2725C87.9844 57.9805 88.204 56.6178 88.204 55.1944C88.204 51.6833 87.0116 48.6472 84.6256 46.1816C82.2374 43.7138 79.2757 42.4626 75.8333 42.4626C72.391 42.4626 69.4292 43.7138 67.0411 46.1816C64.6551 48.6472 63.4626 51.6833 63.4626 55.1944C63.4626 58.7056 64.6551 61.7417 67.0411 64.2073C69.4292 66.6751 72.391 67.9262 75.8333 67.9262C77.2274 67.9262 78.5622 67.6964 79.8263 67.2275C80.5943 66.9426 81.3148 66.5914 81.9844 66.1724L91.5619 76.0691ZM80.0411 59.6149C78.8702 60.8248 77.4971 61.4071 75.8333 61.4071C74.1696 61.4071 72.7964 60.8248 71.6256 59.6149C70.4528 58.4031 69.8707 56.96 69.8707 55.1944C69.8707 53.4289 70.4528 51.9858 71.6256 50.774C72.7964 49.5641 74.1696 48.9818 75.8333 48.9818C77.4971 48.9818 78.8702 49.5641 80.0411 50.774L81.1458 49.7049L80.0411 50.774C81.2138 51.9858 81.796 53.4289 81.796 55.1944C81.796 56.96 81.2138 58.4031 80.0411 59.6149Z" fill="white" stroke="#223E94" stroke-width="3.07471"/>
</svg>
