<svg width="131" height="129" viewBox="0 0 131 129" fill="none" xmlns="http://www.w3.org/2000/svg">
<rect x="1.92" y="1.92" width="126.16" height="125.16" rx="28.08" fill="#223E94" stroke="white" stroke-width="3.84"/>
<path d="M44.8832 102.721H37.8043V108.84H35.2847V102.721H28.2858V100.681H44.8832V102.721ZM43.4035 93.6021H38.0943C38.1809 94.2153 38.4676 94.8019 38.9542 95.3618C39.4407 95.9151 40.1206 96.395 40.9938 96.8016C41.867 97.2015 42.9035 97.4748 44.1033 97.6215L43.1835 99.6212C41.6104 99.4079 40.2573 98.9813 39.1241 98.3414C37.9976 97.7015 37.1544 96.9049 36.5945 95.9517C36.0279 96.9049 35.1847 97.7015 34.0649 98.3414C32.9451 98.9813 31.6053 99.4079 30.0455 99.6212L29.1057 97.6215C30.2855 97.4748 31.3087 97.2015 32.1752 96.8016C33.0484 96.395 33.7283 95.9151 34.2149 95.3618C34.7081 94.8019 35.0014 94.2153 35.0948 93.6021H29.7856V91.6024H43.4035V93.6021ZM52.562 96.3417C52.562 97.2349 52.7187 98.1247 53.032 99.0112C53.3452 99.8978 53.8185 100.714 54.4517 101.461C55.0916 102.201 55.8748 102.787 56.8014 103.221L55.3816 105.14C54.4417 104.72 53.6285 104.11 52.942 103.311C52.2621 102.504 51.7222 101.574 51.3222 100.521C50.9156 101.654 50.349 102.654 49.6225 103.521C48.9026 104.38 48.0427 105.027 47.0429 105.46L45.6431 103.481C46.5896 103.067 47.3928 102.477 48.0527 101.711C48.7126 100.944 49.2059 100.094 49.5325 99.1612C49.8658 98.228 50.0358 97.2882 50.0424 96.3417V95.6418H46.283V93.6021H50.0224V91.0425H52.582V93.6021H56.2814V95.6418H52.562V96.3417ZM60.3408 97.7015H63.0204V99.8411H60.3408V108.84H57.7812V90.6426H60.3408V97.7015ZM83.7372 99.9011H81.1975V95.3818H77.7781V93.3621H81.1975V90.6426H83.7372V99.9011ZM83.7372 105.52H74.1786V106.64H84.2571V108.64H71.659V103.661H81.2175V102.621H71.639V100.661H83.7372V105.52ZM75.2185 92.5623C75.2118 93.3088 75.3551 94.022 75.6484 94.7019C75.9484 95.3752 76.4116 95.9751 77.0382 96.5016C77.6648 97.0216 78.4446 97.4215 79.3778 97.7015L78.038 99.6611C77.0849 99.3545 76.265 98.9113 75.5784 98.3314C74.8919 97.7448 74.3453 97.0482 73.9387 96.2417C73.5321 97.1415 72.9622 97.9181 72.229 98.5713C71.5024 99.2245 70.6192 99.7145 69.5794 100.041L68.2596 98.0214C69.2328 97.7348 70.046 97.3182 70.6992 96.7716C71.3524 96.2184 71.8357 95.5818 72.149 94.8619C72.4689 94.142 72.6322 93.3755 72.6389 92.5623V91.2425H75.2185V92.5623ZM101.434 101.441H98.8948V97.1415H96.0552V95.0819H98.8948V90.6426H101.434V101.441ZM95.2154 101.841C96.5085 101.847 97.6217 101.991 98.5548 102.271C99.4947 102.544 100.218 102.944 100.724 103.471C101.231 103.997 101.488 104.627 101.494 105.36C101.488 106.087 101.231 106.713 100.724 107.24C100.218 107.767 99.4947 108.166 98.5548 108.44C97.615 108.72 96.5018 108.86 95.2154 108.86C93.9289 108.86 92.8157 108.72 91.8759 108.44C90.936 108.166 90.2128 107.767 89.7062 107.24C89.2063 106.713 88.9563 106.087 88.9563 105.36C88.9563 104.627 89.2063 103.997 89.7062 103.471C90.2128 102.944 90.9327 102.544 91.8659 102.271C92.8057 101.991 93.9222 101.847 95.2154 101.841ZM95.2154 103.801C92.7357 103.801 91.4959 104.32 91.4959 105.36C91.4959 105.88 91.8092 106.27 92.4358 106.53C93.069 106.79 93.9956 106.92 95.2154 106.92C96.4352 106.92 97.3617 106.79 97.9949 106.53C98.6348 106.263 98.9548 105.874 98.9548 105.36C98.9548 104.32 97.7083 103.801 95.2154 103.801ZM96.5951 93.7821H92.9757C92.9957 94.5153 93.159 95.2218 93.4656 95.9017C93.7789 96.575 94.2422 97.1815 94.8554 97.7215C95.4753 98.2614 96.2419 98.6813 97.1551 98.9813L95.8953 100.981C94.9221 100.668 94.0822 100.201 93.3756 99.5812C92.6758 98.9546 92.1225 98.218 91.7159 97.3715C91.296 98.3314 90.7161 99.1646 89.9762 99.8711C89.2363 100.571 88.3431 101.101 87.2966 101.461L85.9768 99.4412C86.9367 99.1212 87.7399 98.668 88.3864 98.0814C89.0397 97.4882 89.5262 96.8216 89.8462 96.0817C90.1728 95.3418 90.3495 94.5753 90.3761 93.7821H86.7167V91.7424H96.5951V93.7821Z" fill="white"/>
<mask id="mask0_614_3783" style="mask-type:alpha" maskUnits="userSpaceOnUse" x="70" y="52" width="29" height="29">
<rect x="70" y="52" width="29" height="29" fill="#D9D9D9"/>
</mask>
<g mask="url(#mask0_614_3783)">
<path d="M80.7164 78L80.2388 74.16C79.9801 74.06 79.7363 73.94 79.5075 73.8C79.2786 73.66 79.0547 73.51 78.8358 73.35L75.2836 74.85L72 69.15L75.0746 66.81C75.0547 66.67 75.0448 66.535 75.0448 66.405V65.595C75.0448 65.465 75.0547 65.33 75.0746 65.19L72 62.85L75.2836 57.15L78.8358 58.65C79.0547 58.49 79.2836 58.34 79.5224 58.2C79.7612 58.06 80 57.94 80.2388 57.84L80.7164 54H87.2836L87.7612 57.84C88.0199 57.94 88.2637 58.06 88.4925 58.2C88.7214 58.34 88.9453 58.49 89.1642 58.65L92.7164 57.15L96 62.85L92.9254 65.19C92.9453 65.33 92.9552 65.465 92.9552 65.595V66.405C92.9552 66.535 92.9353 66.67 92.8955 66.81L95.9701 69.15L92.6866 74.85L89.1642 73.35C88.9453 73.51 88.7164 73.66 88.4776 73.8C88.2388 73.94 88 74.06 87.7612 74.16L87.2836 78H80.7164ZM84.0597 70.2C85.2139 70.2 86.199 69.79 87.0149 68.97C87.8308 68.15 88.2388 67.16 88.2388 66C88.2388 64.84 87.8308 63.85 87.0149 63.03C86.199 62.21 85.2139 61.8 84.0597 61.8C82.8856 61.8 81.8955 62.21 81.0896 63.03C80.2836 63.85 79.8806 64.84 79.8806 66C79.8806 67.16 80.2836 68.15 81.0896 68.97C81.8955 69.79 82.8856 70.2 84.0597 70.2Z" fill="white"/>
</g>
<mask id="mask1_614_3783" style="mask-type:alpha" maskUnits="userSpaceOnUse" x="32" y="11" width="67" height="68">
<rect x="32" y="11" width="67" height="68" fill="#D9D9D9"/>
</mask>
<g mask="url(#mask1_614_3783)">
<path d="M49 71V20H68.3846C73 20 76.9231 21.6528 80.1538 24.9583C83.3846 28.2639 85 32.2778 85 37C85 41.7222 83.3846 45.7361 80.1538 49.0417C76.9231 52.3472 73 54 68.3846 54H60.0769V71H49ZM60.0769 42.6667H68.9385C70.4615 42.6667 71.7654 42.1118 72.85 41.0021C73.9346 39.8924 74.4769 38.5583 74.4769 37C74.4769 35.4417 73.9346 34.1076 72.85 32.9979C71.7654 31.8882 70.4615 31.3333 68.9385 31.3333H60.0769V42.6667Z" fill="white"/>
</g>
</svg>
