<svg width="39" height="39" viewBox="0 0 39 39" fill="none" xmlns="http://www.w3.org/2000/svg">
<path fill-rule="evenodd" clip-rule="evenodd" d="M22.7236 4.13012C22.8655 4.40526 22.9008 4.75762 22.9712 5.46234C23.1046 6.79624 23.1713 7.4632 23.4505 7.82913C23.8046 8.29332 24.3805 8.53187 24.9591 8.45403C25.4153 8.39266 25.934 7.96822 26.9715 7.11934C27.5197 6.67087 27.7937 6.44663 28.0886 6.35242C28.4632 6.23276 28.8684 6.25297 29.2292 6.40931C29.5133 6.53239 29.7637 6.78278 30.2645 7.28355L30.2645 7.28357L31.7164 8.73546C32.2172 9.23626 32.4676 9.48666 32.5906 9.77072C32.747 10.1315 32.7672 10.5367 32.6475 10.9113C32.5533 11.2062 32.3291 11.4803 31.8806 12.0284L31.8806 12.0284C31.0317 13.066 30.6072 13.5847 30.5459 14.0409C30.468 14.6195 30.7066 15.1954 31.1708 15.5495C31.5367 15.8287 32.2037 15.8954 33.5376 16.0288C34.2424 16.0992 34.5948 16.1345 34.8699 16.2764C35.2193 16.4566 35.4916 16.7575 35.6362 17.1231C35.75 17.411 35.75 17.7651 35.75 18.4734V20.5268C35.75 21.2349 35.75 21.5889 35.6362 21.8767C35.4916 22.2425 35.2193 22.5434 34.8698 22.7237C34.5947 22.8655 34.2424 22.9008 33.5378 22.9712L33.5378 22.9712C32.2042 23.1046 31.5375 23.1713 31.1716 23.4502C30.7072 23.8044 30.4686 24.3805 30.5465 24.9594C30.608 25.4153 31.0323 25.9339 31.8808 26.9711C32.3292 27.519 32.5533 27.793 32.6475 28.0878C32.7673 28.4625 32.7471 28.8679 32.5906 29.2288C32.4675 29.5127 32.2172 29.763 31.7166 30.2636L30.2645 31.7157C29.7638 32.2165 29.5134 32.4669 29.2293 32.59C28.8685 32.7463 28.4633 32.7665 28.0887 32.6469C27.7938 32.5526 27.5197 32.3284 26.9716 31.8799C25.9341 31.0311 25.4153 30.6066 24.9592 30.5452C24.3806 30.4674 23.8047 30.706 23.4505 31.1701C23.1714 31.5361 23.1047 32.2031 22.9713 33.5373V33.5373C22.9008 34.2423 22.8655 34.5948 22.7235 34.8701C22.5433 35.2194 22.2426 35.4915 21.8771 35.6361C21.5891 35.75 21.2349 35.75 20.5264 35.75H18.4734C17.7651 35.75 17.411 35.75 17.1231 35.6362C16.7575 35.4916 16.4566 35.2193 16.2764 34.8699C16.1345 34.5948 16.0992 34.2424 16.0288 33.5376C15.8954 32.2037 15.8287 31.5367 15.5495 31.1707C15.1954 30.7066 14.6195 30.4681 14.0409 30.5459C13.5848 30.6072 13.066 31.0317 12.0284 31.8806C11.4802 32.3291 11.2061 32.5534 10.9112 32.6476C10.5367 32.7672 10.1314 32.747 9.77067 32.5907C9.48659 32.4676 9.23618 32.2172 8.73536 31.7164L7.28352 30.2646C6.78272 29.7638 6.53231 29.5134 6.40923 29.2293C6.2529 28.8685 6.23269 28.4633 6.35234 28.0887C6.44655 27.7938 6.6708 27.5197 7.11929 26.9716C7.9682 25.934 8.39266 25.4152 8.45402 24.9591C8.53185 24.3805 8.29331 23.8046 7.82912 23.4505C7.46319 23.1713 6.79624 23.1046 5.46233 22.9712C4.75762 22.9008 4.40526 22.8655 4.13012 22.7236C3.78066 22.5434 3.5084 22.2425 3.36383 21.8769C3.25 21.589 3.25 21.2349 3.25 20.5266V18.4736C3.25 17.7651 3.25 17.4109 3.36389 17.123C3.50846 16.7574 3.78063 16.4567 4.12997 16.2765C4.40518 16.1345 4.75763 16.0992 5.46253 16.0287C6.7968 15.8953 7.46393 15.8286 7.82993 15.5493C8.29392 15.1952 8.53239 14.6195 8.45466 14.0411C8.39335 13.5848 7.96876 13.0658 7.11958 12.028C6.67089 11.4796 6.44655 11.2054 6.35235 10.9103C6.2328 10.5359 6.253 10.1309 6.40921 9.7702C6.5323 9.48601 6.7828 9.23551 7.28379 8.73452L8.73544 7.28287C9.23626 6.78205 9.48667 6.53164 9.77075 6.40856C10.1315 6.25224 10.5367 6.23203 10.9113 6.35167C11.2062 6.44588 11.4803 6.67017 12.0286 7.11874C13.066 7.96754 13.5847 8.39195 14.0407 8.45336C14.6195 8.5313 15.1956 8.29268 15.5497 7.8283C15.8288 7.46243 15.8954 6.79566 16.0288 5.46212C16.0992 4.75761 16.1345 4.40535 16.2763 4.13027C16.4566 3.78068 16.7575 3.50834 17.1233 3.36376C17.4111 3.25 17.7651 3.25 18.4732 3.25H20.5266C21.2349 3.25 21.589 3.25 21.8769 3.36383C22.2425 3.5084 22.5434 3.78066 22.7236 4.13012ZM19.5 26C23.0899 26 26 23.0899 26 19.5C26 15.9101 23.0899 13 19.5 13C15.9101 13 13 15.9101 13 19.5C13 23.0899 15.9101 26 19.5 26Z" fill="#7C7C7C"/>
</svg>
