<svg width="72" height="72" viewBox="0 0 72 72" fill="none" xmlns="http://www.w3.org/2000/svg">
<g filter="url(#filter0_i_349_2718)">
<path d="M34.1109 5.43477C34.7335 3.64365 37.2665 3.64365 37.8891 5.43477L44.0072 23.0356C44.2818 23.8257 45.0192 24.3615 45.8555 24.3785L64.4855 24.7582C66.3813 24.7968 67.1641 27.2059 65.653 28.3515L50.8042 39.609C50.1376 40.1144 49.856 40.9813 50.0982 41.7819L55.4941 59.6174C56.0432 61.4324 53.9939 62.9213 52.4375 61.8382L37.1424 51.1949C36.4557 50.7171 35.5443 50.7171 34.8576 51.1949L19.5625 61.8382C18.0061 62.9213 15.9568 61.4324 16.5059 59.6174L21.9018 41.7819C22.144 40.9813 21.8624 40.1144 21.1958 39.609L6.34697 28.3515C4.8359 27.2059 5.61867 24.7968 7.51452 24.7582L26.1445 24.3785C26.9808 24.3615 27.7182 23.8257 27.9928 23.0356L34.1109 5.43477Z" fill="url(#paint0_linear_349_2718)"/>
</g>
<defs>
<filter id="filter0_i_349_2718" x="2.55176" y="1.0918" width="63.8965" height="61.1133" filterUnits="userSpaceOnUse" color-interpolation-filters="sRGB">
<feFlood flood-opacity="0" result="BackgroundImageFix"/>
<feBlend mode="normal" in="SourceGraphic" in2="BackgroundImageFix" result="shape"/>
<feColorMatrix in="SourceAlpha" type="matrix" values="0 0 0 0 0 0 0 0 0 0 0 0 0 0 0 0 0 0 127 0" result="hardAlpha"/>
<feOffset dx="-3" dy="-4"/>
<feGaussianBlur stdDeviation="1.5"/>
<feComposite in2="hardAlpha" operator="arithmetic" k2="-1" k3="1"/>
<feColorMatrix type="matrix" values="0 0 0 0 1 0 0 0 0 1 0 0 0 0 1 0 0 0 0.25 0"/>
<feBlend mode="normal" in2="shape" result="effect1_innerShadow_349_2718"/>
</filter>
<linearGradient id="paint0_linear_349_2718" x1="36" y1="72" x2="36" y2="0" gradientUnits="userSpaceOnUse">
<stop stop-color="#FFC500"/>
<stop offset="1" stop-color="#FF9E00"/>
</linearGradient>
</defs>
</svg>
