<svg width="25" height="24" viewBox="0 0 25 24" fill="none" xmlns="http://www.w3.org/2000/svg">
<path d="M11.7404 18H14.1404V10.8H11.7404V18ZM12.9404 8.4C13.2804 8.4 13.5654 8.285 13.7954 8.055C14.0254 7.825 14.1404 7.54 14.1404 7.2C14.1404 6.86 14.0254 6.575 13.7954 6.345C13.5654 6.115 13.2804 6 12.9404 6C12.6004 6 12.3154 6.115 12.0854 6.345C11.8554 6.575 11.7404 6.86 11.7404 7.2C11.7404 7.54 11.8554 7.825 12.0854 8.055C12.3154 8.285 12.6004 8.4 12.9404 8.4ZM12.9404 24C11.2804 24 9.72043 23.685 8.26043 23.055C6.80043 22.425 5.53043 21.57 4.45043 20.49C3.37043 19.41 2.51543 18.14 1.88543 16.68C1.25543 15.22 0.94043 13.66 0.94043 12C0.94043 10.34 1.25543 8.78 1.88543 7.32C2.51543 5.86 3.37043 4.59 4.45043 3.51C5.53043 2.43 6.80043 1.575 8.26043 0.945C9.72043 0.315 11.2804 0 12.9404 0C14.6004 0 16.1604 0.315 17.6204 0.945C19.0804 1.575 20.3504 2.43 21.4304 3.51C22.5104 4.59 23.3654 5.86 23.9954 7.32C24.6254 8.78 24.9404 10.34 24.9404 12C24.9404 13.66 24.6254 15.22 23.9954 16.68C23.3654 18.14 22.5104 19.41 21.4304 20.49C20.3504 21.57 19.0804 22.425 17.6204 23.055C16.1604 23.685 14.6004 24 12.9404 24ZM12.9404 21.6C15.6204 21.6 17.8904 20.67 19.7504 18.81C21.6104 16.95 22.5404 14.68 22.5404 12C22.5404 9.32 21.6104 7.05 19.7504 5.19C17.8904 3.33 15.6204 2.4 12.9404 2.4C10.2604 2.4 7.99043 3.33 6.13043 5.19C4.27043 7.05 3.34043 9.32 3.34043 12C3.34043 14.68 4.27043 16.95 6.13043 18.81C7.99043 20.67 10.2604 21.6 12.9404 21.6Z" fill="#1C1B1F"/>
</svg>
