<svg width="64" height="64" viewBox="0 0 64 64" fill="none" xmlns="http://www.w3.org/2000/svg">
<path d="M31.9995 0.5C49.3965 0.5 63.4995 14.603 63.4995 32C63.4995 49.397 49.3965 63.5 31.9995 63.5C14.6025 63.5 0.499512 49.397 0.499512 32C0.499512 14.603 14.6025 0.5 31.9995 0.5Z" fill="white" stroke="#B8B6B2"/>
<mask id="mask0_349_2732" style="mask-type:luminance" maskUnits="userSpaceOnUse" x="15" y="15" width="34" height="34">
<path d="M48.4094 15.5898H15.5889V48.4104H48.4094V15.5898Z" fill="white"/>
</mask>
<g mask="url(#mask0_349_2732)">
<path d="M47.7529 32.3733C47.7529 31.2097 47.6485 30.0908 47.4545 29.0166H31.999V35.3644H40.8307C40.4503 37.4157 39.2942 39.1537 37.5562 40.3174V44.4349H42.8597C45.9627 41.578 47.7529 37.3709 47.7529 32.3733Z" fill="#4285F4"/>
<path d="M31.9988 48.4105C36.4296 48.4105 40.1442 46.9409 42.8593 44.4348L37.5559 40.3173C36.0865 41.3019 34.2067 41.8836 31.9988 41.8836C27.7246 41.8836 24.107 38.9969 22.8165 35.1182H17.334V39.3699C20.0343 44.7331 25.5839 48.4105 31.9988 48.4105Z" fill="#34A853"/>
<path d="M22.8168 35.1185C22.4886 34.1339 22.3021 33.0821 22.3021 32.0005C22.3021 30.9189 22.4886 29.8672 22.8168 28.8826V24.6309H17.3343C16.223 26.8462 15.5889 29.3526 15.5889 32.0005C15.5889 34.6485 16.223 37.1548 17.3343 39.3702L22.8168 35.1185Z" fill="#FBBC04"/>
<path d="M31.9988 22.1167C34.408 22.1167 36.5712 22.9446 38.272 24.5707L42.9788 19.8639C40.1369 17.2159 36.4221 15.5898 31.9988 15.5898C25.5839 15.5898 20.0343 19.2672 17.334 24.6304L22.8165 28.8822C24.107 25.0034 27.7246 22.1167 31.9988 22.1167Z" fill="#E94235"/>
</g>
</svg>
