<svg width="25" height="24" viewBox="0 0 25 24" fill="none" xmlns="http://www.w3.org/2000/svg">
<path d="M7.60698 14.4H17.207V13.74C17.207 12.86 16.767 12.15 15.887 11.61C15.007 11.07 13.847 10.8 12.407 10.8C10.967 10.8 9.80698 11.07 8.92698 11.61C8.04698 12.15 7.60698 12.86 7.60698 13.74V14.4ZM12.407 9.6C13.067 9.6 13.632 9.365 14.102 8.895C14.572 8.425 14.807 7.86 14.807 7.2C14.807 6.54 14.572 5.975 14.102 5.505C13.632 5.035 13.067 4.8 12.407 4.8C11.747 4.8 11.182 5.035 10.712 5.505C10.242 5.975 10.007 6.54 10.007 7.2C10.007 7.86 10.242 8.425 10.712 8.895C11.182 9.365 11.747 9.6 12.407 9.6ZM0.406982 24V2.4C0.406982 1.74 0.641982 1.175 1.11198 0.705C1.58198 0.235 2.14698 0 2.80698 0H22.007C22.667 0 23.232 0.235 23.702 0.705C24.172 1.175 24.407 1.74 24.407 2.4V16.8C24.407 17.46 24.172 18.025 23.702 18.495C23.232 18.965 22.667 19.2 22.007 19.2H5.20698L0.406982 24ZM4.18698 16.8H22.007V2.4H2.80698V18.15L4.18698 16.8Z" fill="#1C1B1F"/>
</svg>
