<svg width="25" height="24" viewBox="0 0 25 24" fill="none" xmlns="http://www.w3.org/2000/svg">
<path d="M5.20723 14.4H14.8072V12H5.20723V14.4ZM5.20723 10.8H19.6072V8.4H5.20723V10.8ZM5.20723 7.2H19.6072V4.8H5.20723V7.2ZM12.4072 24L9.19723 19.2H2.80723C2.14723 19.2 1.58223 18.965 1.11223 18.495C0.642227 18.025 0.407227 17.46 0.407227 16.8V2.4C0.407227 1.74 0.642227 1.175 1.11223 0.705C1.58223 0.235 2.14723 0 2.80723 0H22.0072C22.6672 0 23.2322 0.235 23.7022 0.705C24.1722 1.175 24.4072 1.74 24.4072 2.4V16.8C24.4072 17.46 24.1722 18.025 23.7022 18.495C23.2322 18.965 22.6672 19.2 22.0072 19.2H15.6172L12.4072 24ZM12.4072 19.68L14.3272 16.8H22.0072V2.4H2.80723V16.8H10.4872L12.4072 19.68Z" fill="#1C1B1F"/>
</svg>
