<svg width="22" height="24" viewBox="0 0 22 24" fill="none" xmlns="http://www.w3.org/2000/svg">
<path d="M8.88542 4.17391V0H10.9724V4.17391H8.88542ZM4.26803 5.66087L1.1376 2.53043L2.62455 1.04348L5.75499 4.17391L4.26803 5.66087ZM1.58108 24C1.28542 24 1.0376 23.9 0.837598 23.7C0.637598 23.5 0.537598 23.2522 0.537598 22.9565V14.6087L2.7289 8.34783C2.83325 8.03478 3.02021 7.78261 3.28977 7.5913C3.55934 7.4 3.85934 7.30435 4.18977 7.30435H6.79847V5.21739H10.2159C9.79847 5.8087 9.47238 6.45652 9.2376 7.16087C9.00282 7.86522 8.88542 8.6087 8.88542 9.3913H4.55499L3.01586 13.5652H10.2159C10.5115 13.9826 10.8419 14.3696 11.2072 14.7261C11.5724 15.0826 11.9811 15.3913 12.4333 15.6522H2.62455V19.8261H17.2332V16.6174C17.5985 16.5652 17.955 16.487 18.3028 16.3826C18.6506 16.2783 18.9898 16.1478 19.3202 15.9913V22.9565C19.3202 23.2522 19.2202 23.5 19.0202 23.7C18.8202 23.9 18.5724 24 18.2767 24H17.2332C16.9376 24 16.6898 23.9 16.4898 23.7C16.2898 23.5 16.1898 23.2522 16.1898 22.9565V21.913H3.66803V22.9565C3.66803 23.2522 3.56803 23.5 3.36803 23.7C3.16803 23.9 2.92021 24 2.62455 24H1.58108ZM3.66803 18.7826H6.79847C7.09412 18.7826 7.34195 18.6826 7.54195 18.4826C7.74195 18.2826 7.84195 18.0348 7.84195 17.7391C7.84195 17.4435 7.74195 17.1957 7.54195 16.9957C7.34195 16.7957 7.09412 16.6957 6.79847 16.6957H3.66803V18.7826ZM16.1898 18.7826V16.6957H13.0593C12.7637 16.6957 12.5159 16.7957 12.3159 16.9957C12.1159 17.1957 12.0159 17.4435 12.0159 17.7391C12.0159 18.0348 12.1159 18.2826 12.3159 18.4826C12.5159 18.6826 12.7637 18.7826 13.0593 18.7826H16.1898ZM15.4333 11.7391L19.0593 8.13913L17.9637 7.04348L15.4333 9.52174L14.4159 8.50435L13.3202 9.62609L15.4333 11.7391ZM16.1898 4.17391C17.6332 4.17391 18.8637 4.68261 19.8811 5.7C20.8985 6.71739 21.4072 7.94783 21.4072 9.3913C21.4072 10.8348 20.8985 12.0652 19.8811 13.0826C18.8637 14.1 17.6332 14.6087 16.1898 14.6087C14.7463 14.6087 13.5159 14.1 12.4985 13.0826C11.4811 12.0652 10.9724 10.8348 10.9724 9.3913C10.9724 7.94783 11.4811 6.71739 12.4985 5.7C13.5159 4.68261 14.7463 4.17391 16.1898 4.17391Z" fill="#1C1B1F"/>
</svg>
