<svg width="30" height="26" viewBox="0 0 30 26" fill="none" xmlns="http://www.w3.org/2000/svg">
<path d="M29.7708 2.18182V15.2727C29.7708 15.8727 29.5572 16.3864 29.1299 16.8136C28.7026 17.2409 28.189 17.4545 27.589 17.4545H10.1345C9.53445 17.4545 9.02082 17.2409 8.59355 16.8136C8.16627 16.3864 7.95264 15.8727 7.95264 15.2727V2.18182C7.95264 1.58182 8.16627 1.06818 8.59355 0.640909C9.02082 0.213636 9.53445 0 10.1345 0H27.589C28.189 0 28.7026 0.213636 29.1299 0.640909C29.5572 1.06818 29.7708 1.58182 29.7708 2.18182ZM10.1345 4.36364H27.589V2.18182H10.1345V4.36364ZM10.1345 8.72727V15.2727H27.589V8.72727H10.1345Z" fill="#1C1B1F"/>
<path d="M14.109 24.382L14.4947 24.7746L14.8838 24.3855L21.4293 17.84L21.815 17.4543L21.4293 17.0686L14.8838 10.5232L14.4981 10.1375L14.1124 10.5232L12.5852 12.0504L12.2008 12.4348L12.5838 12.8205L15.5605 15.818H6.31632C5.69344 15.818 5.1879 15.6091 4.76565 15.1868C4.3434 14.7646 4.1345 14.259 4.1345 13.6361C4.1345 13.0133 4.3434 12.5077 4.76565 12.0855C5.1879 11.6632 5.69344 11.4543 6.31632 11.4543H6.86177H7.40723V10.9089V8.72705V8.1816H6.86177H6.31632C4.80967 8.1816 3.51135 8.71517 2.45335 9.77317C1.39535 10.8312 0.861772 12.1295 0.861772 13.6361C0.861772 15.1428 1.39535 16.4411 2.45335 17.4991C3.51135 18.5571 4.80967 19.0907 6.31632 19.0907H15.554L12.5852 22.0595L12.2029 22.4418L12.5818 22.8275L14.109 24.382Z" fill="#1C1B1F" stroke="white" stroke-width="1.09091"/>
</svg>
