<svg width="150" height="150" viewBox="0 0 150 150" fill="none" xmlns="http://www.w3.org/2000/svg">
<path fill-rule="evenodd" clip-rule="evenodd" d="M75 0.595215C34.003 0.595215 0.595215 34.003 0.595215 75C0.595215 96.5774 9.89581 115.997 24.628 129.613C24.628 129.687 24.628 129.687 24.5535 129.762C25.2976 130.506 26.1905 131.101 26.9345 131.771C27.3809 132.143 27.753 132.515 28.1994 132.812C29.5387 133.929 31.0268 134.97 32.4405 136.012C32.9613 136.384 33.4077 136.682 33.9286 137.054C35.3422 138.021 36.8303 138.914 38.3928 139.732C38.9137 140.03 39.5089 140.402 40.0297 140.699C41.5178 141.518 43.0803 142.262 44.7172 142.932C45.3125 143.229 45.9077 143.527 46.503 143.75C48.1399 144.42 49.7768 145.015 51.4137 145.536C52.0089 145.759 52.6041 145.982 53.1994 146.131C54.9851 146.652 56.7708 147.098 58.5565 147.545C59.0774 147.693 59.5982 147.842 60.1934 147.917C62.2768 148.363 64.3601 148.661 66.5178 148.884C66.8155 148.884 67.1131 148.958 67.4107 149.033C69.9405 149.256 72.4702 149.405 75 149.405C77.5297 149.405 80.0595 149.256 82.5149 149.033C82.8125 149.033 83.1101 148.958 83.4077 148.884C85.5655 148.661 87.6488 148.363 89.7321 147.917C90.253 147.842 90.7738 147.619 91.369 147.545C93.1547 147.098 95.0149 146.726 96.7262 146.131C97.3214 145.908 97.9166 145.684 98.5119 145.536C100.149 144.94 101.86 144.42 103.423 143.75C104.018 143.527 104.613 143.229 105.208 142.932C106.771 142.262 108.333 141.518 109.896 140.699C110.491 140.402 111.012 140.03 111.533 139.732C113.021 138.839 114.509 138.021 115.997 137.054C116.518 136.756 116.964 136.384 117.485 136.012C118.973 134.97 120.387 133.929 121.726 132.812C122.173 132.44 122.545 132.068 122.991 131.771C123.81 131.101 124.628 130.432 125.372 129.762C125.372 129.687 125.372 129.687 125.298 129.613C140.104 115.997 149.405 96.5774 149.405 75C149.405 34.003 115.997 0.595215 75 0.595215ZM38.244 111.979C34.9702 114.137 32.2916 116.667 30.0595 119.42C18.75 107.961 11.7559 92.2619 11.7559 75C11.7559 40.1041 40.1041 11.7559 75 11.7559C109.896 11.7559 138.244 40.1041 138.244 75C138.244 92.2619 131.25 107.961 119.94 119.42C117.783 116.667 115.03 114.137 111.756 111.979C91.5922 98.4375 58.5565 98.4375 38.244 111.979Z" fill="black"/>
<path d="M47.0981 65.1762C47.0981 80.2804 58.9285 92.5572 74.6279 93.0036C74.8511 93.0036 75.1487 93.0036 75.2976 93.0036C75.4464 93.0036 75.6696 93.0036 75.8184 93.0036C75.8928 93.0036 75.9672 93.0036 75.9672 93.0036C90.997 92.4827 102.827 80.2804 102.902 65.1762C102.902 49.7744 90.4017 37.2744 74.9999 37.2744C59.5981 37.2744 47.0981 49.7744 47.0981 65.1762Z" fill="black"/>
</svg>
