<svg width="29" height="24" viewBox="0 0 29 24" fill="none" xmlns="http://www.w3.org/2000/svg">
<path d="M2.97917 18.6667V8V8.43333V2.66667V18.6667ZM2.97917 5.33333H24.3125V2.66667H2.97917V5.33333ZM13.2125 21.3333H2.97917C2.24583 21.3333 1.61806 21.0722 1.09583 20.55C0.573611 20.0278 0.3125 19.4 0.3125 18.6667V2.66667C0.3125 1.93333 0.573611 1.30556 1.09583 0.783333C1.61806 0.261111 2.24583 0 2.97917 0H24.3125C25.0458 0 25.6736 0.261111 26.1958 0.783333C26.7181 1.30556 26.9792 1.93333 26.9792 2.66667V9.66667C26.1792 9.11111 25.3125 8.69444 24.3792 8.41667C23.4458 8.13889 22.4903 8 21.5125 8C20.3125 8 19.1569 8.23333 18.0458 8.7C16.9347 9.16667 15.9569 9.82222 15.1125 10.6667H2.97917V18.6667H12.4125C12.4792 19.1333 12.5792 19.5889 12.7125 20.0333C12.8458 20.4778 13.0125 20.9111 13.2125 21.3333ZM23.8792 20.5L24.8125 19.5667L22.3125 17.0667V13.3333H20.9792V17.6L23.8792 20.5ZM21.6792 24C19.8125 24 18.2292 23.3556 16.9292 22.0667C15.6292 20.7778 14.9792 19.2 14.9792 17.3333C14.9792 15.4667 15.6292 13.8889 16.9292 12.6C18.2292 11.3111 19.8125 10.6667 21.6792 10.6667C23.5236 10.6667 25.0903 11.3167 26.3792 12.6167C27.6681 13.9167 28.3125 15.4889 28.3125 17.3333C28.3125 19.1778 27.6681 20.75 26.3792 22.05C25.0903 23.35 23.5236 24 21.6792 24Z" fill="#1C1B1F"/>
</svg>
