<svg width="34" height="27" viewBox="0 0 34 27" fill="none" xmlns="http://www.w3.org/2000/svg">
<path d="M25.2597 9.31587V24.4738C25.2597 25.1685 25.0124 25.7632 24.5176 26.258C24.0229 26.7527 23.4282 27.0001 22.7334 27.0001H2.5229C1.82816 27.0001 1.23342 26.7527 0.738687 26.258C0.24395 25.7632 -0.00341797 25.1685 -0.00341797 24.4738V9.31587C-0.00341797 8.62113 0.24395 8.02639 0.738687 7.53166C1.23342 7.03692 1.82816 6.78955 2.5229 6.78955H22.7334C23.4282 6.78955 24.0229 7.03692 24.5176 7.53166C25.0124 8.02639 25.2597 8.62113 25.2597 9.31587ZM2.5229 11.8422H22.7334V9.31587H2.5229V11.8422ZM2.5229 16.8948V24.4738H22.7334V16.8948H2.5229Z" fill="#1C1B1F"/>
<path d="M28.0438 21.5774L28.9369 22.4706L29.8301 21.5774L31.2056 20.202L32.0988 19.3088L31.2056 18.4156L25.7464 12.9565C25.9402 12.6072 26.1062 12.2384 26.2451 11.8513C26.5265 11.0675 26.6633 10.2428 26.6633 9.38596C26.6633 7.27399 25.9175 5.43983 24.4389 3.9612C22.9603 2.48257 21.1261 1.73684 19.0141 1.73684C16.9022 1.73684 15.068 2.48257 13.5894 3.9612C12.1107 5.43983 11.365 7.27399 11.365 9.38596C11.365 11.4979 12.1107 13.3321 13.5894 14.8107C15.068 16.2894 16.9022 17.0351 19.0141 17.0351C19.871 17.0351 20.6957 16.8983 21.4795 16.6169C21.8666 16.478 22.2354 16.312 22.5846 16.1183L28.0438 21.5774ZM21.2525 11.6244C20.6325 12.2444 19.911 12.5439 19.0141 12.5439C18.1173 12.5439 17.3958 12.2444 16.7757 11.6244C16.1557 11.0043 15.8562 10.2828 15.8562 9.38596C15.8562 8.48908 16.1557 7.76764 16.7757 7.14757C17.3958 6.5275 18.1173 6.22807 19.0141 6.22807C19.911 6.22807 20.6325 6.5275 21.2525 7.14757C21.8726 7.76764 22.172 8.48908 22.172 9.38596C22.172 10.2828 21.8726 11.0043 21.2525 11.6244Z" fill="#1C1B1F" stroke="white" stroke-width="2.52632"/>
</svg>
