<svg width="25" height="24" viewBox="0 0 25 24" fill="none" xmlns="http://www.w3.org/2000/svg">
<path d="M13.6458 24V21.3333H19.7792L13.6458 15.2V11.4667L21.6458 19.4667V13.3333H24.3125V24H13.6458ZM4.3125 18.6667V17.3333H0.3125V14.6667H8.3125V10.6667H2.97917C2.24583 10.6667 1.61806 10.4056 1.09583 9.88333C0.573611 9.36111 0.3125 8.73333 0.3125 8V4C0.3125 3.26667 0.573611 2.63889 1.09583 2.11667C1.61806 1.59444 2.24583 1.33333 2.97917 1.33333H4.3125V0H6.97917V1.33333H10.9792V4H2.97917V8H8.3125C9.04583 8 9.67361 8.26111 10.1958 8.78333C10.7181 9.30556 10.9792 9.93333 10.9792 10.6667V14.6667C10.9792 15.4 10.7181 16.0278 10.1958 16.55C9.67361 17.0722 9.04583 17.3333 8.3125 17.3333H6.97917V18.6667H4.3125Z" fill="#1C1B1F"/>
</svg>
