<svg width="31" height="24" viewBox="0 0 31 24" fill="none" xmlns="http://www.w3.org/2000/svg">
<path d="M30.407 3V21C30.407 21.825 30.1132 22.5312 29.5257 23.1188C28.9382 23.7063 28.232 24 27.407 24H3.40698C2.58198 24 1.87573 23.7063 1.28823 23.1188C0.700732 22.5312 0.406982 21.825 0.406982 21V3C0.406982 2.175 0.700732 1.46875 1.28823 0.88125C1.87573 0.29375 2.58198 0 3.40698 0H27.407C28.232 0 28.9382 0.29375 29.5257 0.88125C30.1132 1.46875 30.407 2.175 30.407 3ZM3.40698 6H27.407V3H3.40698V6ZM3.40698 12V21H27.407V12H3.40698Z" fill="#1C1B1F"/>
</svg>
