<svg width="22" height="28" viewBox="0 0 22 28" fill="none" xmlns="http://www.w3.org/2000/svg">
<path d="M6.04082 20.4V12.28L3.80082 14L2.84082 12.72L11.6408 6L20.4408 12.72L19.4808 14L17.2408 12.28V20.4H15.6408V18H7.64082V20.4H6.04082ZM7.64082 13.2H15.6408V11.6H7.64082V13.2ZM7.64082 16.4H15.6408V14.8H7.64082V16.4ZM9.04082 10H14.2408L11.6408 8.02L9.04082 10Z" fill="#1C1B1F"/>
<path d="M10.5554 26.2801L10.8382 26.568L11.1236 26.2826L15.9236 21.4826L16.2064 21.1998L15.9236 20.917L11.1236 16.117L10.8407 15.8341L10.5579 16.117L9.43788 17.237L9.15602 17.5188L9.4369 17.8017L11.6198 19.9998H4.84072C4.38395 19.9998 4.01322 19.8466 3.70357 19.537C3.39391 19.2273 3.24072 18.8566 3.24072 18.3998C3.24072 17.943 3.39391 17.5723 3.70357 17.2626C4.01322 16.953 4.38395 16.7998 4.84072 16.7998H5.24072H5.64072V16.3998V14.7998V14.3998H5.24072H4.84072C3.73585 14.3998 2.78375 14.7911 2.00788 15.567C1.23201 16.3428 0.840723 17.2949 0.840723 18.3998C0.840723 19.5047 1.23201 20.4568 2.00788 21.2326C2.78375 22.0085 3.73585 22.3998 4.84072 22.3998H11.615L9.43788 24.577L9.15753 24.8573L9.43539 25.1401L10.5554 26.2801Z" fill="#1C1B1F" stroke="white" stroke-width="0.8"/>
<path d="M11.126 1.71987L10.8432 1.432L10.5578 1.71735L5.75783 6.51735L5.47499 6.8002L5.75783 7.08304L10.5578 11.883L10.8407 12.1659L11.1235 11.883L12.2435 10.763L12.5254 10.4812L12.2445 10.1983L10.0616 8.0002L16.8407 8.0002C17.2974 8.0002 17.6682 8.15339 17.9778 8.46304C18.2875 8.77269 18.4407 9.14342 18.4407 9.6002C18.4407 10.057 18.2875 10.4277 17.9778 10.7374C17.6682 11.047 17.2974 11.2002 16.8407 11.2002L16.4407 11.2002L16.0407 11.2002L16.0407 11.6002L16.0407 13.2002L16.0407 13.6002L16.4407 13.6002L16.8407 13.6002C17.9455 13.6002 18.8977 13.2089 19.6735 12.433C20.4494 11.6572 20.8407 10.7051 20.8407 9.6002C20.8407 8.49532 20.4494 7.54322 19.6735 6.76735C18.8976 5.99149 17.9455 5.6002 16.8407 5.6002L10.0664 5.6002L12.2435 3.42304L12.5239 3.14269L12.246 2.85987L11.126 1.71987Z" fill="#1C1B1F" stroke="white" stroke-width="0.8"/>
</svg>
