<svg width="32" height="27" viewBox="0 0 32 27" fill="none" xmlns="http://www.w3.org/2000/svg">
<path d="M3.58523 24.8181V25.909C3.58523 26.2181 3.48068 26.4772 3.27159 26.6863C3.0625 26.8954 2.80341 27 2.49432 27H1.40341C1.09432 27 0.835227 26.8954 0.626136 26.6863C0.417045 26.4772 0.3125 26.2181 0.3125 25.909V17.1818L2.60341 10.6363C2.7125 10.309 2.90795 10.0454 3.18977 9.84541C3.47159 9.64541 3.78523 9.54541 4.13068 9.54541H16.1307C16.4761 9.54541 16.7898 9.64541 17.0716 9.84541C17.3534 10.0454 17.5489 10.309 17.658 10.6363L19.9489 17.1818V25.909C19.9489 26.2181 19.8443 26.4772 19.6352 26.6863C19.4261 26.8954 19.167 27 18.858 27H17.767C17.458 27 17.1989 26.8954 16.9898 26.6863C16.7807 26.4772 16.6761 26.2181 16.6761 25.909V24.8181H3.58523ZM3.36705 15H16.8943L15.7489 11.7272H4.5125L3.36705 15ZM5.22159 21.5454C5.67614 21.5454 6.0625 21.3863 6.38068 21.0681C6.69886 20.75 6.85795 20.3636 6.85795 19.909C6.85795 19.4545 6.69886 19.0681 6.38068 18.75C6.0625 18.4318 5.67614 18.2727 5.22159 18.2727C4.76705 18.2727 4.38068 18.4318 4.0625 18.75C3.74432 19.0681 3.58523 19.4545 3.58523 19.909C3.58523 20.3636 3.74432 20.75 4.0625 21.0681C4.38068 21.3863 4.76705 21.5454 5.22159 21.5454ZM15.0398 21.5454C15.4943 21.5454 15.8807 21.3863 16.1989 21.0681C16.517 20.75 16.6761 20.3636 16.6761 19.909C16.6761 19.4545 16.517 19.0681 16.1989 18.75C15.8807 18.4318 15.4943 18.2727 15.0398 18.2727C14.5852 18.2727 14.1989 18.4318 13.8807 18.75C13.5625 19.0681 13.4034 19.4545 13.4034 19.909C13.4034 20.3636 13.5625 20.75 13.8807 21.0681C14.1989 21.3863 14.5852 21.5454 15.0398 21.5454ZM2.49432 22.6363H17.767V17.1818H2.49432V22.6363Z" fill="#1C1B1F"/>
<path d="M25.7404 24.2406L24.766 23.2662L18.8106 17.3108C18.4296 17.5222 18.0272 17.7033 17.605 17.8549C16.7499 18.1618 15.8503 18.311 14.9155 18.311C12.6115 18.311 10.6106 17.4975 8.99755 15.8844C7.38451 14.2714 6.57098 12.2705 6.57098 9.96651C6.57098 7.66254 7.38451 5.66163 8.99755 4.04858M25.7404 24.2406L8.99755 4.04858M25.7404 24.2406L26.7147 23.2662L28.2152 21.7658L29.1896 20.7914L28.2152 19.817L22.2598 13.8616C22.4712 13.4806 22.6523 13.0782 22.8038 12.656C23.1108 11.801 23.26 10.9013 23.26 9.96651C23.26 7.66254 22.4465 5.66163 20.8334 4.04858C19.2204 2.43553 17.2194 1.62201 14.9155 1.62201C12.6115 1.62201 10.6106 2.43553 8.99755 4.04858M25.7404 24.2406L8.99755 4.04858M17.3574 12.4084C16.6809 13.0848 15.8939 13.4115 14.9155 13.4115C13.9371 13.4115 13.15 13.0848 12.4736 12.4084C11.7972 11.7319 11.4705 10.9449 11.4705 9.96651C11.4705 8.98809 11.7972 8.20107 12.4736 7.52463C13.15 6.84818 13.9371 6.52153 14.9155 6.52153C15.8939 6.52153 16.6809 6.84818 17.3574 7.52462C18.0338 8.20107 18.3605 8.98809 18.3605 9.96651C18.3605 10.9449 18.0338 11.7319 17.3574 12.4084Z" fill="#1C1B1F" stroke="white" stroke-width="2.75598"/>
</svg>
