<svg width="25" height="24" viewBox="0 0 25 24" fill="none" xmlns="http://www.w3.org/2000/svg">
<path d="M12.407 24C10.7403 24 9.1792 23.6833 7.72365 23.05C6.26809 22.4167 5.00143 21.5611 3.92365 20.4833C2.84587 19.4056 1.99032 18.1389 1.35698 16.6833C0.723649 15.2278 0.406982 13.6667 0.406982 12C0.406982 10.3333 0.723649 8.77222 1.35698 7.31667C1.99032 5.86111 2.84587 4.59444 3.92365 3.51667C5.00143 2.43889 6.26809 1.58333 7.72365 0.95C9.1792 0.316667 10.7403 0 12.407 0C14.2292 0 15.957 0.388889 17.5903 1.16667C19.2236 1.94444 20.607 3.04444 21.7403 4.46667V1.33333H24.407V9.33333H16.407V6.66667H20.0737C19.1625 5.42222 18.0403 4.44444 16.707 3.73333C15.3736 3.02222 13.9403 2.66667 12.407 2.66667C9.80698 2.66667 7.60143 3.57222 5.79032 5.38333C3.9792 7.19444 3.07365 9.4 3.07365 12C3.07365 14.6 3.9792 16.8056 5.79032 18.6167C7.60143 20.4278 9.80698 21.3333 12.407 21.3333C14.7403 21.3333 16.7792 20.5778 18.5237 19.0667C20.2681 17.5556 21.2959 15.6444 21.607 13.3333H24.3403C24.007 16.3778 22.7014 18.9167 20.4236 20.95C18.1459 22.9833 15.4736 24 12.407 24ZM16.1403 17.6L11.0736 12.5333V5.33333H13.7403V11.4667L18.007 15.7333L16.1403 17.6Z" fill="#1C1B1F"/>
</svg>
