<svg width="26" height="27" viewBox="0 0 26 27" fill="none" xmlns="http://www.w3.org/2000/svg">
<path d="M20.8999 9.51616V18.8065C20.8999 19.2323 20.7483 19.5968 20.445 19.9C20.1418 20.2033 19.7773 20.3549 19.3515 20.3549H6.9644C6.5386 20.3549 6.17408 20.2033 5.87085 19.9C5.56763 19.5968 5.41602 19.2323 5.41602 18.8065V9.51616C5.41602 9.09035 5.56763 8.72584 5.87085 8.42261C6.17408 8.11939 6.5386 7.96777 6.9644 7.96777H19.3515C19.7773 7.96777 20.1418 8.11939 20.445 8.42261C20.7483 8.72584 20.8999 9.09035 20.8999 9.51616ZM6.9644 11.0645H19.3515V9.51616H6.9644V11.0645ZM6.9644 14.1613V18.8065H19.3515V14.1613H6.9644Z" fill="#1C1B1F"/>
<path d="M9.78494 25.2711L10.0586 25.5497L10.3348 25.2736L14.98 20.6284L15.2537 20.3547L14.98 20.081L10.3348 15.4358L10.0611 15.1621L9.78736 15.4358L8.70348 16.5197L8.43072 16.7924L8.70253 17.0662L10.815 19.1934H4.25462C3.81258 19.1934 3.45381 19.0451 3.15415 18.7455C2.85448 18.4458 2.70624 18.087 2.70624 17.645C2.70624 17.203 2.85448 16.8442 3.15415 16.5445C3.45381 16.2449 3.81258 16.0966 4.25462 16.0966H4.64172H5.02882V15.7095V14.1611V13.774H4.64172H4.25462C3.18539 13.774 2.264 14.1527 1.51316 14.9035C0.762324 15.6544 0.383655 16.5758 0.383655 17.645C0.383655 18.7142 0.762324 19.6356 1.51316 20.3865C2.264 21.1373 3.18539 21.516 4.25462 21.516H10.8104L8.70348 23.6229L8.43218 23.8942L8.70107 24.1679L9.78494 25.2711Z" fill="#1C1B1F" stroke="white" stroke-width="0.774194"/>
<path d="M22.2778 19.8544L22.5515 20.1281L22.8252 19.8544L24.2704 18.4092L24.5441 18.1355L24.2704 17.8618L18.0051 11.5965C18.3485 11.1131 18.6259 10.5744 18.8384 9.9824C19.0952 9.26694 19.2225 8.50847 19.2225 7.70968C19.2225 5.73414 18.5339 4.04787 17.1607 2.67467C15.7875 1.30147 14.1012 0.612903 12.1257 0.612903C10.1502 0.612903 8.46388 1.30147 7.09068 2.67467C5.71748 4.04787 5.02892 5.73414 5.02892 7.70968C5.02892 9.68521 5.71748 11.3715 7.09068 12.7447C8.46388 14.1179 10.1502 14.8065 12.1257 14.8065C12.9245 14.8065 13.683 14.6792 14.3984 14.4224C14.9904 14.2099 15.5291 13.9324 16.0125 13.5891L22.2778 19.8544ZM15.1423 10.7263C14.3125 11.5561 13.3145 11.9677 12.1257 11.9677C10.9369 11.9677 9.9389 11.5561 9.10909 10.7263C8.27928 9.89647 7.86763 8.89851 7.86763 7.70968C7.86763 6.52085 8.27928 5.52288 9.10909 4.69307C9.9389 3.86327 10.9369 3.45161 12.1257 3.45161C13.3145 3.45161 14.3125 3.86327 15.1423 4.69307C15.9721 5.52288 16.3838 6.52085 16.3838 7.70968C16.3838 8.89851 15.9721 9.89647 15.1423 10.7263Z" fill="#1C1B1F" stroke="white" stroke-width="0.774194"/>
</svg>
